<?xml version="1.0" encoding="utf-8" standalone="no"?>
<!DOCTYPE svg PUBLIC "-//W3C//DTD SVG 1.1//EN"
  "http://www.w3.org/Graphics/SVG/1.1/DTD/svg11.dtd">
<svg xmlns:xlink="http://www.w3.org/1999/xlink" width="432pt" height="432pt" viewBox="0 0 432 432" xmlns="http://www.w3.org/2000/svg" version="1.1">
 <metadata>
  <rdf:RDF xmlns:dc="http://purl.org/dc/elements/1.1/" xmlns:cc="http://creativecommons.org/ns#" xmlns:rdf="http://www.w3.org/1999/02/22-rdf-syntax-ns#">
   <cc:Work>
    <dc:type rdf:resource="http://purl.org/dc/dcmitype/StillImage"/>
    <dc:date>2023-11-21T11:27:42.454515</dc:date>
    <dc:format>image/svg+xml</dc:format>
    <dc:creator>
     <cc:Agent>
      <dc:title>Matplotlib v3.7.1, https://matplotlib.org/</dc:title>
     </cc:Agent>
    </dc:creator>
   </cc:Work>
  </rdf:RDF>
 </metadata>
 <defs>
  <style type="text/css">*{stroke-linejoin: round; stroke-linecap: butt}</style>
 </defs>
 <g id="figure_1">
  <g id="patch_1">
   <path d="M 0 432 
L 432 432 
L 432 0 
L 0 0 
z
" style="fill: #ffffff"/>
  </g>
  <g id="axes_1">
   <g id="patch_2">
    <path d="M 57.179533 188.553312 
L 421.2 188.553312 
L 421.2 17.28 
L 57.179533 17.28 
z
" style="fill: #ffffff"/>
   </g>
   <g id="patch_3">
    <path d="M 57.179533 34.407331 
L 57.179533 17.28 
L 421.2 17.28 
L 421.2 34.407331 
z
" clip-path="url(#pf8d56162a0)" style="fill: #d3d3d3; opacity: 0.3; stroke: #d3d3d3; stroke-linejoin: miter"/>
   </g>
   <g id="matplotlib.axis_1">
    <g id="xtick_1">
     <g id="line2d_1">
      <defs>
       <path id="m84ba61f346" d="M 0 0 
L 0 5 
" style="stroke: #000000; stroke-width: 0.8"/>
      </defs>
      <g>
       <use xlink:href="#m84ba61f346" x="57.179533" y="188.553312" style="stroke: #000000; stroke-width: 0.8"/>
      </g>
     </g>
    </g>
    <g id="xtick_2">
     <g id="line2d_2">
      <g>
       <use xlink:href="#m84ba61f346" x="208.985027" y="188.553312" style="stroke: #000000; stroke-width: 0.8"/>
      </g>
     </g>
    </g>
    <g id="xtick_3">
     <g id="line2d_3">
      <g>
       <use xlink:href="#m84ba61f346" x="360.790521" y="188.553312" style="stroke: #000000; stroke-width: 0.8"/>
      </g>
     </g>
    </g>
    <g id="xtick_4">
     <g id="line2d_4">
      <defs>
       <path id="mb9852fb2fd" d="M 0 0 
L 0 2.5 
" style="stroke: #000000; stroke-width: 0.6"/>
      </defs>
      <g>
       <use xlink:href="#mb9852fb2fd" x="102.87754" y="188.553312" style="stroke: #000000; stroke-width: 0.6"/>
      </g>
     </g>
    </g>
    <g id="xtick_5">
     <g id="line2d_5">
      <g>
       <use xlink:href="#mb9852fb2fd" x="129.609161" y="188.553312" style="stroke: #000000; stroke-width: 0.6"/>
      </g>
     </g>
    </g>
    <g id="xtick_6">
     <g id="line2d_6">
      <g>
       <use xlink:href="#mb9852fb2fd" x="148.575547" y="188.553312" style="stroke: #000000; stroke-width: 0.6"/>
      </g>
     </g>
    </g>
    <g id="xtick_7">
     <g id="line2d_7">
      <g>
       <use xlink:href="#mb9852fb2fd" x="163.28702" y="188.553312" style="stroke: #000000; stroke-width: 0.6"/>
      </g>
     </g>
    </g>
    <g id="xtick_8">
     <g id="line2d_8">
      <g>
       <use xlink:href="#mb9852fb2fd" x="175.307168" y="188.553312" style="stroke: #000000; stroke-width: 0.6"/>
      </g>
     </g>
    </g>
    <g id="xtick_9">
     <g id="line2d_9">
      <g>
       <use xlink:href="#mb9852fb2fd" x="185.470058" y="188.553312" style="stroke: #000000; stroke-width: 0.6"/>
      </g>
     </g>
    </g>
    <g id="xtick_10">
     <g id="line2d_10">
      <g>
       <use xlink:href="#mb9852fb2fd" x="194.273555" y="188.553312" style="stroke: #000000; stroke-width: 0.6"/>
      </g>
     </g>
    </g>
    <g id="xtick_11">
     <g id="line2d_11">
      <g>
       <use xlink:href="#mb9852fb2fd" x="202.038788" y="188.553312" style="stroke: #000000; stroke-width: 0.6"/>
      </g>
     </g>
    </g>
    <g id="xtick_12">
     <g id="line2d_12">
      <g>
       <use xlink:href="#mb9852fb2fd" x="254.683034" y="188.553312" style="stroke: #000000; stroke-width: 0.6"/>
      </g>
     </g>
    </g>
    <g id="xtick_13">
     <g id="line2d_13">
      <g>
       <use xlink:href="#mb9852fb2fd" x="281.414654" y="188.553312" style="stroke: #000000; stroke-width: 0.6"/>
      </g>
     </g>
    </g>
    <g id="xtick_14">
     <g id="line2d_14">
      <g>
       <use xlink:href="#mb9852fb2fd" x="300.381041" y="188.553312" style="stroke: #000000; stroke-width: 0.6"/>
      </g>
     </g>
    </g>
    <g id="xtick_15">
     <g id="line2d_15">
      <g>
       <use xlink:href="#mb9852fb2fd" x="315.092513" y="188.553312" style="stroke: #000000; stroke-width: 0.6"/>
      </g>
     </g>
    </g>
    <g id="xtick_16">
     <g id="line2d_16">
      <g>
       <use xlink:href="#mb9852fb2fd" x="327.112662" y="188.553312" style="stroke: #000000; stroke-width: 0.6"/>
      </g>
     </g>
    </g>
    <g id="xtick_17">
     <g id="line2d_17">
      <g>
       <use xlink:href="#mb9852fb2fd" x="337.275552" y="188.553312" style="stroke: #000000; stroke-width: 0.6"/>
      </g>
     </g>
    </g>
    <g id="xtick_18">
     <g id="line2d_18">
      <g>
       <use xlink:href="#mb9852fb2fd" x="346.079048" y="188.553312" style="stroke: #000000; stroke-width: 0.6"/>
      </g>
     </g>
    </g>
    <g id="xtick_19">
     <g id="line2d_19">
      <g>
       <use xlink:href="#mb9852fb2fd" x="353.844282" y="188.553312" style="stroke: #000000; stroke-width: 0.6"/>
      </g>
     </g>
    </g>
    <g id="xtick_20">
     <g id="line2d_20">
      <g>
       <use xlink:href="#mb9852fb2fd" x="406.488528" y="188.553312" style="stroke: #000000; stroke-width: 0.6"/>
      </g>
     </g>
    </g>
   </g>
   <g id="matplotlib.axis_2">
    <g id="ytick_1">
     <g id="line2d_21">
      <defs>
       <path id="me7ad21e5b5" d="M 0 0 
L -5 0 
" style="stroke: #000000; stroke-width: 0.8"/>
      </defs>
      <g>
       <use xlink:href="#me7ad21e5b5" x="57.179533" y="188.553312" style="stroke: #000000; stroke-width: 0.8"/>
      </g>
     </g>
     <g id="text_1">
      <!-- 0.0 -->
      <g transform="translate(34.779533 192.132219) scale(0.1 -0.1)">
       <defs>
        <path id="ArialMT-30" d="M 266 2259 
Q 266 3072 433 3567 
Q 600 4063 929 4331 
Q 1259 4600 1759 4600 
Q 2128 4600 2406 4451 
Q 2684 4303 2865 4023 
Q 3047 3744 3150 3342 
Q 3253 2941 3253 2259 
Q 3253 1453 3087 958 
Q 2922 463 2592 192 
Q 2263 -78 1759 -78 
Q 1097 -78 719 397 
Q 266 969 266 2259 
z
M 844 2259 
Q 844 1131 1108 757 
Q 1372 384 1759 384 
Q 2147 384 2411 759 
Q 2675 1134 2675 2259 
Q 2675 3391 2411 3762 
Q 2147 4134 1753 4134 
Q 1366 4134 1134 3806 
Q 844 3388 844 2259 
z
" transform="scale(0.015625)"/>
        <path id="ArialMT-2e" d="M 581 0 
L 581 641 
L 1222 641 
L 1222 0 
L 581 0 
z
" transform="scale(0.015625)"/>
       </defs>
       <use xlink:href="#ArialMT-30"/>
       <use xlink:href="#ArialMT-2e" x="55.615234"/>
       <use xlink:href="#ArialMT-30" x="83.398438"/>
      </g>
     </g>
    </g>
    <g id="ytick_2">
     <g id="line2d_22">
      <g>
       <use xlink:href="#me7ad21e5b5" x="57.179533" y="154.29865" style="stroke: #000000; stroke-width: 0.8"/>
      </g>
     </g>
     <g id="text_2">
      <!-- 0.2 -->
      <g transform="translate(34.779533 157.877556) scale(0.1 -0.1)">
       <defs>
        <path id="ArialMT-32" d="M 3222 541 
L 3222 0 
L 194 0 
Q 188 203 259 391 
Q 375 700 629 1000 
Q 884 1300 1366 1694 
Q 2113 2306 2375 2664 
Q 2638 3022 2638 3341 
Q 2638 3675 2398 3904 
Q 2159 4134 1775 4134 
Q 1369 4134 1125 3890 
Q 881 3647 878 3216 
L 300 3275 
Q 359 3922 746 4261 
Q 1134 4600 1788 4600 
Q 2447 4600 2831 4234 
Q 3216 3869 3216 3328 
Q 3216 3053 3103 2787 
Q 2991 2522 2730 2228 
Q 2469 1934 1863 1422 
Q 1356 997 1212 845 
Q 1069 694 975 541 
L 3222 541 
z
" transform="scale(0.015625)"/>
       </defs>
       <use xlink:href="#ArialMT-30"/>
       <use xlink:href="#ArialMT-2e" x="55.615234"/>
       <use xlink:href="#ArialMT-32" x="83.398438"/>
      </g>
     </g>
    </g>
    <g id="ytick_3">
     <g id="line2d_23">
      <g>
       <use xlink:href="#me7ad21e5b5" x="57.179533" y="120.043987" style="stroke: #000000; stroke-width: 0.8"/>
      </g>
     </g>
     <g id="text_3">
      <!-- 0.4 -->
      <g transform="translate(34.779533 123.622894) scale(0.1 -0.1)">
       <defs>
        <path id="ArialMT-34" d="M 2069 0 
L 2069 1097 
L 81 1097 
L 81 1613 
L 2172 4581 
L 2631 4581 
L 2631 1613 
L 3250 1613 
L 3250 1097 
L 2631 1097 
L 2631 0 
L 2069 0 
z
M 2069 1613 
L 2069 3678 
L 634 1613 
L 2069 1613 
z
" transform="scale(0.015625)"/>
       </defs>
       <use xlink:href="#ArialMT-30"/>
       <use xlink:href="#ArialMT-2e" x="55.615234"/>
       <use xlink:href="#ArialMT-34" x="83.398438"/>
      </g>
     </g>
    </g>
    <g id="ytick_4">
     <g id="line2d_24">
      <g>
       <use xlink:href="#me7ad21e5b5" x="57.179533" y="85.789325" style="stroke: #000000; stroke-width: 0.8"/>
      </g>
     </g>
     <g id="text_4">
      <!-- 0.6 -->
      <g transform="translate(34.779533 89.368231) scale(0.1 -0.1)">
       <defs>
        <path id="ArialMT-36" d="M 3184 3459 
L 2625 3416 
Q 2550 3747 2413 3897 
Q 2184 4138 1850 4138 
Q 1581 4138 1378 3988 
Q 1113 3794 959 3422 
Q 806 3050 800 2363 
Q 1003 2672 1297 2822 
Q 1591 2972 1913 2972 
Q 2475 2972 2870 2558 
Q 3266 2144 3266 1488 
Q 3266 1056 3080 686 
Q 2894 316 2569 119 
Q 2244 -78 1831 -78 
Q 1128 -78 684 439 
Q 241 956 241 2144 
Q 241 3472 731 4075 
Q 1159 4600 1884 4600 
Q 2425 4600 2770 4297 
Q 3116 3994 3184 3459 
z
M 888 1484 
Q 888 1194 1011 928 
Q 1134 663 1356 523 
Q 1578 384 1822 384 
Q 2178 384 2434 671 
Q 2691 959 2691 1453 
Q 2691 1928 2437 2201 
Q 2184 2475 1800 2475 
Q 1419 2475 1153 2201 
Q 888 1928 888 1484 
z
" transform="scale(0.015625)"/>
       </defs>
       <use xlink:href="#ArialMT-30"/>
       <use xlink:href="#ArialMT-2e" x="55.615234"/>
       <use xlink:href="#ArialMT-36" x="83.398438"/>
      </g>
     </g>
    </g>
    <g id="ytick_5">
     <g id="line2d_25">
      <g>
       <use xlink:href="#me7ad21e5b5" x="57.179533" y="51.534662" style="stroke: #000000; stroke-width: 0.8"/>
      </g>
     </g>
     <g id="text_5">
      <!-- 0.8 -->
      <g transform="translate(34.779533 55.113569) scale(0.1 -0.1)">
       <defs>
        <path id="ArialMT-38" d="M 1131 2484 
Q 781 2613 612 2850 
Q 444 3088 444 3419 
Q 444 3919 803 4259 
Q 1163 4600 1759 4600 
Q 2359 4600 2725 4251 
Q 3091 3903 3091 3403 
Q 3091 3084 2923 2848 
Q 2756 2613 2416 2484 
Q 2838 2347 3058 2040 
Q 3278 1734 3278 1309 
Q 3278 722 2862 322 
Q 2447 -78 1769 -78 
Q 1091 -78 675 323 
Q 259 725 259 1325 
Q 259 1772 486 2073 
Q 713 2375 1131 2484 
z
M 1019 3438 
Q 1019 3113 1228 2906 
Q 1438 2700 1772 2700 
Q 2097 2700 2305 2904 
Q 2513 3109 2513 3406 
Q 2513 3716 2298 3927 
Q 2084 4138 1766 4138 
Q 1444 4138 1231 3931 
Q 1019 3725 1019 3438 
z
M 838 1322 
Q 838 1081 952 856 
Q 1066 631 1291 507 
Q 1516 384 1775 384 
Q 2178 384 2440 643 
Q 2703 903 2703 1303 
Q 2703 1709 2433 1975 
Q 2163 2241 1756 2241 
Q 1359 2241 1098 1978 
Q 838 1716 838 1322 
z
" transform="scale(0.015625)"/>
       </defs>
       <use xlink:href="#ArialMT-30"/>
       <use xlink:href="#ArialMT-2e" x="55.615234"/>
       <use xlink:href="#ArialMT-38" x="83.398438"/>
      </g>
     </g>
    </g>
    <g id="ytick_6">
     <g id="line2d_26">
      <g>
       <use xlink:href="#me7ad21e5b5" x="57.179533" y="17.28" style="stroke: #000000; stroke-width: 0.8"/>
      </g>
     </g>
     <g id="text_6">
      <!-- 1.0 -->
      <g transform="translate(34.779533 20.858906) scale(0.1 -0.1)">
       <defs>
        <path id="ArialMT-31" d="M 2384 0 
L 1822 0 
L 1822 3584 
Q 1619 3391 1289 3197 
Q 959 3003 697 2906 
L 697 3450 
Q 1169 3672 1522 3987 
Q 1875 4303 2022 4600 
L 2384 4600 
L 2384 0 
z
" transform="scale(0.015625)"/>
       </defs>
       <use xlink:href="#ArialMT-31"/>
       <use xlink:href="#ArialMT-2e" x="55.615234"/>
       <use xlink:href="#ArialMT-30" x="83.398438"/>
      </g>
     </g>
    </g>
    <g id="text_7">
     <!-- $R_λ$, $T_λ$ [-] -->
     <g transform="translate(26.979533 122.516656) rotate(-90) scale(0.1 -0.1)">
      <defs>
       <path id="DejaVuSans-Oblique-52" d="M 1613 4147 
L 1294 2491 
L 2106 2491 
Q 2584 2491 2879 2755 
Q 3175 3019 3175 3444 
Q 3175 3784 2976 3965 
Q 2778 4147 2406 4147 
L 1613 4147 
z
M 2772 2241 
Q 2972 2194 3105 2009 
Q 3238 1825 3413 1275 
L 3809 0 
L 3144 0 
L 2778 1197 
Q 2638 1659 2453 1815 
Q 2269 1972 1888 1972 
L 1191 1972 
L 806 0 
L 172 0 
L 1081 4666 
L 2503 4666 
Q 3150 4666 3495 4373 
Q 3841 4081 3841 3531 
Q 3841 3044 3547 2687 
Q 3253 2331 2772 2241 
z
" transform="scale(0.015625)"/>
       <path id="DejaVuSans-Oblique-3bb" d="M 2350 4316 
L 3125 0 
L 2516 0 
L 2038 2588 
L 328 0 
L -281 0 
L 1903 3356 
L 1794 3975 
Q 1725 4369 1391 4369 
L 1091 4369 
L 1184 4863 
L 1550 4856 
Q 2253 4847 2350 4316 
z
" transform="scale(0.015625)"/>
       <path id="ArialMT-2c" d="M 569 0 
L 569 641 
L 1209 641 
L 1209 0 
Q 1209 -353 1084 -570 
Q 959 -788 688 -906 
L 531 -666 
Q 709 -588 793 -436 
Q 878 -284 888 0 
L 569 0 
z
" transform="scale(0.015625)"/>
       <path id="ArialMT-20" transform="scale(0.015625)"/>
       <path id="DejaVuSans-Oblique-54" d="M 378 4666 
L 4325 4666 
L 4225 4134 
L 2559 4134 
L 1759 0 
L 1125 0 
L 1925 4134 
L 275 4134 
L 378 4666 
z
" transform="scale(0.015625)"/>
       <path id="ArialMT-5b" d="M 434 -1272 
L 434 4581 
L 1675 4581 
L 1675 4116 
L 997 4116 
L 997 -806 
L 1675 -806 
L 1675 -1272 
L 434 -1272 
z
" transform="scale(0.015625)"/>
       <path id="ArialMT-2d" d="M 203 1375 
L 203 1941 
L 1931 1941 
L 1931 1375 
L 203 1375 
z
" transform="scale(0.015625)"/>
       <path id="ArialMT-5d" d="M 1363 -1272 
L 122 -1272 
L 122 -806 
L 800 -806 
L 800 4116 
L 122 4116 
L 122 4581 
L 1363 4581 
L 1363 -1272 
z
" transform="scale(0.015625)"/>
      </defs>
      <use xlink:href="#DejaVuSans-Oblique-52" transform="translate(0 0.09375)"/>
      <use xlink:href="#DejaVuSans-Oblique-3bb" transform="translate(69.482422 -16.3125) scale(0.7)"/>
      <use xlink:href="#ArialMT-2c" transform="translate(113.642578 0.09375)"/>
      <use xlink:href="#ArialMT-20" transform="translate(141.425781 0.09375)"/>
      <use xlink:href="#DejaVuSans-Oblique-54" transform="translate(169.208984 0.09375)"/>
      <use xlink:href="#DejaVuSans-Oblique-3bb" transform="translate(230.292969 -16.3125) scale(0.7)"/>
      <use xlink:href="#ArialMT-20" transform="translate(274.453125 0.09375)"/>
      <use xlink:href="#ArialMT-5b" transform="translate(302.236328 0.09375)"/>
      <use xlink:href="#ArialMT-2d" transform="translate(330.019531 0.09375)"/>
      <use xlink:href="#ArialMT-5d" transform="translate(363.320312 0.09375)"/>
     </g>
    </g>
   </g>
   <g id="line2d_27">
    <path d="M 129.609161 171.425981 
L 139.772051 173.87519 
L 143.435676 174.851447 
L 148.575547 173.138714 
L 156.340781 166.287782 
L 163.28702 162.862316 
L 169.570657 164.575049 
L 175.307168 152.585917 
L 180.584247 142.309518 
L 185.470058 138.884052 
L 190.01864 137.171319 
L 194.273555 135.458586 
L 202.038788 135.458586 
L 208.985027 140.596785 
L 215.268664 144.022251 
L 221.005175 154.29865 
L 226.282254 157.724116 
L 231.168065 173.138714 
L 235.716647 179.989647 
L 239.971562 176.564181 
L 247.736796 178.276914 
L 254.683034 185.127846 
L 260.966671 183.415113 
L 266.703182 183.415113 
" clip-path="url(#pf8d56162a0)" style="fill: none; stroke-dasharray: 5.55,2.4; stroke-dashoffset: 0; stroke: #000000; stroke-opacity: 0.5; stroke-width: 1.5"/>
    <defs>
     <path id="ma96467fcec" d="M 0 3 
C 0.795609 3 1.55874 2.683901 2.12132 2.12132 
C 2.683901 1.55874 3 0.795609 3 0 
C 3 -0.795609 2.683901 -1.55874 2.12132 -2.12132 
C 1.55874 -2.683901 0.795609 -3 0 -3 
C -0.795609 -3 -1.55874 -2.683901 -2.12132 -2.12132 
C -2.683901 -1.55874 -3 -0.795609 -3 0 
C -3 0.795609 -2.683901 1.55874 -2.12132 2.12132 
C -1.55874 2.683901 -0.795609 3 0 3 
z
" style="stroke: #000000; stroke-opacity: 0.5"/>
    </defs>
    <g clip-path="url(#pf8d56162a0)">
     <use xlink:href="#ma96467fcec" x="129.609161" y="171.425981" style="fill-opacity: 0.5; stroke: #000000; stroke-opacity: 0.5"/>
     <use xlink:href="#ma96467fcec" x="139.772051" y="173.87519" style="fill-opacity: 0.5; stroke: #000000; stroke-opacity: 0.5"/>
     <use xlink:href="#ma96467fcec" x="143.435676" y="174.851447" style="fill-opacity: 0.5; stroke: #000000; stroke-opacity: 0.5"/>
     <use xlink:href="#ma96467fcec" x="148.575547" y="173.138714" style="fill-opacity: 0.5; stroke: #000000; stroke-opacity: 0.5"/>
     <use xlink:href="#ma96467fcec" x="156.340781" y="166.287782" style="fill-opacity: 0.5; stroke: #000000; stroke-opacity: 0.5"/>
     <use xlink:href="#ma96467fcec" x="163.28702" y="162.862316" style="fill-opacity: 0.5; stroke: #000000; stroke-opacity: 0.5"/>
     <use xlink:href="#ma96467fcec" x="169.570657" y="164.575049" style="fill-opacity: 0.5; stroke: #000000; stroke-opacity: 0.5"/>
     <use xlink:href="#ma96467fcec" x="175.307168" y="152.585917" style="fill-opacity: 0.5; stroke: #000000; stroke-opacity: 0.5"/>
     <use xlink:href="#ma96467fcec" x="180.584247" y="142.309518" style="fill-opacity: 0.5; stroke: #000000; stroke-opacity: 0.5"/>
     <use xlink:href="#ma96467fcec" x="185.470058" y="138.884052" style="fill-opacity: 0.5; stroke: #000000; stroke-opacity: 0.5"/>
     <use xlink:href="#ma96467fcec" x="190.01864" y="137.171319" style="fill-opacity: 0.5; stroke: #000000; stroke-opacity: 0.5"/>
     <use xlink:href="#ma96467fcec" x="194.273555" y="135.458586" style="fill-opacity: 0.5; stroke: #000000; stroke-opacity: 0.5"/>
     <use xlink:href="#ma96467fcec" x="202.038788" y="135.458586" style="fill-opacity: 0.5; stroke: #000000; stroke-opacity: 0.5"/>
     <use xlink:href="#ma96467fcec" x="208.985027" y="140.596785" style="fill-opacity: 0.5; stroke: #000000; stroke-opacity: 0.5"/>
     <use xlink:href="#ma96467fcec" x="215.268664" y="144.022251" style="fill-opacity: 0.5; stroke: #000000; stroke-opacity: 0.5"/>
     <use xlink:href="#ma96467fcec" x="221.005175" y="154.29865" style="fill-opacity: 0.5; stroke: #000000; stroke-opacity: 0.5"/>
     <use xlink:href="#ma96467fcec" x="226.282254" y="157.724116" style="fill-opacity: 0.5; stroke: #000000; stroke-opacity: 0.5"/>
     <use xlink:href="#ma96467fcec" x="231.168065" y="173.138714" style="fill-opacity: 0.5; stroke: #000000; stroke-opacity: 0.5"/>
     <use xlink:href="#ma96467fcec" x="235.716647" y="179.989647" style="fill-opacity: 0.5; stroke: #000000; stroke-opacity: 0.5"/>
     <use xlink:href="#ma96467fcec" x="239.971562" y="176.564181" style="fill-opacity: 0.5; stroke: #000000; stroke-opacity: 0.5"/>
     <use xlink:href="#ma96467fcec" x="247.736796" y="178.276914" style="fill-opacity: 0.5; stroke: #000000; stroke-opacity: 0.5"/>
     <use xlink:href="#ma96467fcec" x="254.683034" y="185.127846" style="fill-opacity: 0.5; stroke: #000000; stroke-opacity: 0.5"/>
     <use xlink:href="#ma96467fcec" x="260.966671" y="183.415113" style="fill-opacity: 0.5; stroke: #000000; stroke-opacity: 0.5"/>
     <use xlink:href="#ma96467fcec" x="266.703182" y="183.415113" style="fill-opacity: 0.5; stroke: #000000; stroke-opacity: 0.5"/>
    </g>
   </g>
   <g id="line2d_28">
    <path d="M 129.609161 188.553312 
L 139.772051 188.382039 
L 143.435676 188.382039 
L 148.575547 187.868219 
L 156.340781 187.696946 
L 163.28702 183.072566 
L 169.570657 184.7853 
L 175.307168 174.337628 
L 180.584247 156.35393 
L 185.470058 146.591351 
L 190.01864 139.397872 
L 194.273555 137.856412 
L 202.038788 146.077531 
L 208.985027 143.165885 
L 215.268664 132.033119 
L 221.005175 136.143679 
L 226.282254 133.232033 
L 231.168065 166.972875 
L 235.716647 180.846013 
L 239.971562 170.912161 
L 247.736796 171.768528 
L 254.683034 187.696946 
L 260.966671 187.525673 
L 266.703182 187.696946 
" clip-path="url(#pf8d56162a0)" style="fill: none; stroke-dasharray: 5.55,2.4; stroke-dashoffset: 0; stroke: #000000; stroke-opacity: 0.5; stroke-width: 1.5"/>
    <defs>
     <path id="md88687732b" d="M 0 3 
C 0.795609 3 1.55874 2.683901 2.12132 2.12132 
C 2.683901 1.55874 3 0.795609 3 0 
C 3 -0.795609 2.683901 -1.55874 2.12132 -2.12132 
C 1.55874 -2.683901 0.795609 -3 0 -3 
C -0.795609 -3 -1.55874 -2.683901 -2.12132 -2.12132 
C -2.683901 -1.55874 -3 -0.795609 -3 0 
C -3 0.795609 -2.683901 1.55874 -2.12132 2.12132 
C -1.55874 2.683901 -0.795609 3 0 3 
z
" style="stroke: #000000; stroke-opacity: 0.5"/>
    </defs>
    <g clip-path="url(#pf8d56162a0)">
     <use xlink:href="#md88687732b" x="129.609161" y="188.553312" style="fill: #ffffff; fill-opacity: 0.5; stroke: #000000; stroke-opacity: 0.5"/>
     <use xlink:href="#md88687732b" x="139.772051" y="188.382039" style="fill: #ffffff; fill-opacity: 0.5; stroke: #000000; stroke-opacity: 0.5"/>
     <use xlink:href="#md88687732b" x="143.435676" y="188.382039" style="fill: #ffffff; fill-opacity: 0.5; stroke: #000000; stroke-opacity: 0.5"/>
     <use xlink:href="#md88687732b" x="148.575547" y="187.868219" style="fill: #ffffff; fill-opacity: 0.5; stroke: #000000; stroke-opacity: 0.5"/>
     <use xlink:href="#md88687732b" x="156.340781" y="187.696946" style="fill: #ffffff; fill-opacity: 0.5; stroke: #000000; stroke-opacity: 0.5"/>
     <use xlink:href="#md88687732b" x="163.28702" y="183.072566" style="fill: #ffffff; fill-opacity: 0.5; stroke: #000000; stroke-opacity: 0.5"/>
     <use xlink:href="#md88687732b" x="169.570657" y="184.7853" style="fill: #ffffff; fill-opacity: 0.5; stroke: #000000; stroke-opacity: 0.5"/>
     <use xlink:href="#md88687732b" x="175.307168" y="174.337628" style="fill: #ffffff; fill-opacity: 0.5; stroke: #000000; stroke-opacity: 0.5"/>
     <use xlink:href="#md88687732b" x="180.584247" y="156.35393" style="fill: #ffffff; fill-opacity: 0.5; stroke: #000000; stroke-opacity: 0.5"/>
     <use xlink:href="#md88687732b" x="185.470058" y="146.591351" style="fill: #ffffff; fill-opacity: 0.5; stroke: #000000; stroke-opacity: 0.5"/>
     <use xlink:href="#md88687732b" x="190.01864" y="139.397872" style="fill: #ffffff; fill-opacity: 0.5; stroke: #000000; stroke-opacity: 0.5"/>
     <use xlink:href="#md88687732b" x="194.273555" y="137.856412" style="fill: #ffffff; fill-opacity: 0.5; stroke: #000000; stroke-opacity: 0.5"/>
     <use xlink:href="#md88687732b" x="202.038788" y="146.077531" style="fill: #ffffff; fill-opacity: 0.5; stroke: #000000; stroke-opacity: 0.5"/>
     <use xlink:href="#md88687732b" x="208.985027" y="143.165885" style="fill: #ffffff; fill-opacity: 0.5; stroke: #000000; stroke-opacity: 0.5"/>
     <use xlink:href="#md88687732b" x="215.268664" y="132.033119" style="fill: #ffffff; fill-opacity: 0.5; stroke: #000000; stroke-opacity: 0.5"/>
     <use xlink:href="#md88687732b" x="221.005175" y="136.143679" style="fill: #ffffff; fill-opacity: 0.5; stroke: #000000; stroke-opacity: 0.5"/>
     <use xlink:href="#md88687732b" x="226.282254" y="133.232033" style="fill: #ffffff; fill-opacity: 0.5; stroke: #000000; stroke-opacity: 0.5"/>
     <use xlink:href="#md88687732b" x="231.168065" y="166.972875" style="fill: #ffffff; fill-opacity: 0.5; stroke: #000000; stroke-opacity: 0.5"/>
     <use xlink:href="#md88687732b" x="235.716647" y="180.846013" style="fill: #ffffff; fill-opacity: 0.5; stroke: #000000; stroke-opacity: 0.5"/>
     <use xlink:href="#md88687732b" x="239.971562" y="170.912161" style="fill: #ffffff; fill-opacity: 0.5; stroke: #000000; stroke-opacity: 0.5"/>
     <use xlink:href="#md88687732b" x="247.736796" y="171.768528" style="fill: #ffffff; fill-opacity: 0.5; stroke: #000000; stroke-opacity: 0.5"/>
     <use xlink:href="#md88687732b" x="254.683034" y="187.696946" style="fill: #ffffff; fill-opacity: 0.5; stroke: #000000; stroke-opacity: 0.5"/>
     <use xlink:href="#md88687732b" x="260.966671" y="187.525673" style="fill: #ffffff; fill-opacity: 0.5; stroke: #000000; stroke-opacity: 0.5"/>
     <use xlink:href="#md88687732b" x="266.703182" y="187.696946" style="fill: #ffffff; fill-opacity: 0.5; stroke: #000000; stroke-opacity: 0.5"/>
    </g>
   </g>
   <g id="line2d_29">
    <path d="M 266.977313 183.415113 
L 421.226366 183.415113 
L 421.226366 183.415113 
" clip-path="url(#pf8d56162a0)" style="fill: none; stroke-dasharray: 5.55,2.4; stroke-dashoffset: 0; stroke: #000000; stroke-opacity: 0.5; stroke-width: 1.5"/>
   </g>
   <g id="line2d_30">
    <path d="M 266.977313 187.696946 
L 421.226366 187.696946 
L 421.226366 187.696946 
" clip-path="url(#pf8d56162a0)" style="fill: none; stroke-dasharray: 5.55,2.4; stroke-dashoffset: 0; stroke: #000000; stroke-opacity: 0.5; stroke-width: 1.5"/>
   </g>
   <g id="line2d_31">
    <path d="M 148.575547 188.553312 
L 148.575547 17.28 
" clip-path="url(#pf8d56162a0)" style="fill: none; stroke-dasharray: 1.5,2.475; stroke-dashoffset: 0; stroke: #d3d3d3; stroke-width: 1.5"/>
   </g>
   <g id="line2d_32">
    <path d="M 194.273555 188.553312 
L 194.273555 17.28 
" clip-path="url(#pf8d56162a0)" style="fill: none; stroke-dasharray: 1.5,2.475; stroke-dashoffset: 0; stroke: #d3d3d3; stroke-width: 1.5"/>
   </g>
   <g id="line2d_33">
    <path d="M 231.168065 188.553312 
L 231.168065 17.28 
" clip-path="url(#pf8d56162a0)" style="fill: none; stroke-dasharray: 1.5,2.475; stroke-dashoffset: 0; stroke: #d3d3d3; stroke-width: 1.5"/>
   </g>
   <g id="line2d_34">
    <path d="M 281.414654 188.553312 
L 281.414654 17.28 
" clip-path="url(#pf8d56162a0)" style="fill: none; stroke-dasharray: 1.5,2.475; stroke-dashoffset: 0; stroke: #d3d3d3; stroke-width: 1.5"/>
   </g>
   <g id="patch_4">
    <path d="M 57.179533 188.553312 
L 57.179533 17.28 
" style="fill: none; stroke: #000000; stroke-width: 0.8; stroke-linejoin: miter; stroke-linecap: square"/>
   </g>
   <g id="patch_5">
    <path d="M 421.2 188.553312 
L 421.2 17.28 
" style="fill: none; stroke: #000000; stroke-width: 0.8; stroke-linejoin: miter; stroke-linecap: square"/>
   </g>
   <g id="patch_6">
    <path d="M 57.179533 188.553312 
L 421.2 188.553312 
" style="fill: none; stroke: #000000; stroke-width: 0.8; stroke-linejoin: miter; stroke-linecap: square"/>
   </g>
   <g id="patch_7">
    <path d="M 57.179533 17.28 
L 421.2 17.28 
" style="fill: none; stroke: #000000; stroke-width: 0.8; stroke-linejoin: miter; stroke-linecap: square"/>
   </g>
   <g id="text_8">
    <!-- Ultraviolet -->
    <g transform="translate(80.649415 30.125498) scale(0.1 -0.1)">
     <defs>
      <path id="ArialMT-55" d="M 3500 4581 
L 4106 4581 
L 4106 1934 
Q 4106 1244 3950 837 
Q 3794 431 3386 176 
Q 2978 -78 2316 -78 
Q 1672 -78 1262 144 
Q 853 366 678 786 
Q 503 1206 503 1934 
L 503 4581 
L 1109 4581 
L 1109 1938 
Q 1109 1341 1220 1058 
Q 1331 775 1601 622 
Q 1872 469 2263 469 
Q 2931 469 3215 772 
Q 3500 1075 3500 1938 
L 3500 4581 
z
" transform="scale(0.015625)"/>
      <path id="ArialMT-6c" d="M 409 0 
L 409 4581 
L 972 4581 
L 972 0 
L 409 0 
z
" transform="scale(0.015625)"/>
      <path id="ArialMT-74" d="M 1650 503 
L 1731 6 
Q 1494 -44 1306 -44 
Q 1000 -44 831 53 
Q 663 150 594 308 
Q 525 466 525 972 
L 525 2881 
L 113 2881 
L 113 3319 
L 525 3319 
L 525 4141 
L 1084 4478 
L 1084 3319 
L 1650 3319 
L 1650 2881 
L 1084 2881 
L 1084 941 
Q 1084 700 1114 631 
Q 1144 563 1211 522 
Q 1278 481 1403 481 
Q 1497 481 1650 503 
z
" transform="scale(0.015625)"/>
      <path id="ArialMT-72" d="M 416 0 
L 416 3319 
L 922 3319 
L 922 2816 
Q 1116 3169 1280 3281 
Q 1444 3394 1641 3394 
Q 1925 3394 2219 3213 
L 2025 2691 
Q 1819 2813 1613 2813 
Q 1428 2813 1281 2702 
Q 1134 2591 1072 2394 
Q 978 2094 978 1738 
L 978 0 
L 416 0 
z
" transform="scale(0.015625)"/>
      <path id="ArialMT-61" d="M 2588 409 
Q 2275 144 1986 34 
Q 1697 -75 1366 -75 
Q 819 -75 525 192 
Q 231 459 231 875 
Q 231 1119 342 1320 
Q 453 1522 633 1644 
Q 813 1766 1038 1828 
Q 1203 1872 1538 1913 
Q 2219 1994 2541 2106 
Q 2544 2222 2544 2253 
Q 2544 2597 2384 2738 
Q 2169 2928 1744 2928 
Q 1347 2928 1158 2789 
Q 969 2650 878 2297 
L 328 2372 
Q 403 2725 575 2942 
Q 747 3159 1072 3276 
Q 1397 3394 1825 3394 
Q 2250 3394 2515 3294 
Q 2781 3194 2906 3042 
Q 3031 2891 3081 2659 
Q 3109 2516 3109 2141 
L 3109 1391 
Q 3109 606 3145 398 
Q 3181 191 3288 0 
L 2700 0 
Q 2613 175 2588 409 
z
M 2541 1666 
Q 2234 1541 1622 1453 
Q 1275 1403 1131 1340 
Q 988 1278 909 1158 
Q 831 1038 831 891 
Q 831 666 1001 516 
Q 1172 366 1500 366 
Q 1825 366 2078 508 
Q 2331 650 2450 897 
Q 2541 1088 2541 1459 
L 2541 1666 
z
" transform="scale(0.015625)"/>
      <path id="ArialMT-76" d="M 1344 0 
L 81 3319 
L 675 3319 
L 1388 1331 
Q 1503 1009 1600 663 
Q 1675 925 1809 1294 
L 2547 3319 
L 3125 3319 
L 1869 0 
L 1344 0 
z
" transform="scale(0.015625)"/>
      <path id="ArialMT-69" d="M 425 3934 
L 425 4581 
L 988 4581 
L 988 3934 
L 425 3934 
z
M 425 0 
L 425 3319 
L 988 3319 
L 988 0 
L 425 0 
z
" transform="scale(0.015625)"/>
      <path id="ArialMT-6f" d="M 213 1659 
Q 213 2581 725 3025 
Q 1153 3394 1769 3394 
Q 2453 3394 2887 2945 
Q 3322 2497 3322 1706 
Q 3322 1066 3130 698 
Q 2938 331 2570 128 
Q 2203 -75 1769 -75 
Q 1072 -75 642 372 
Q 213 819 213 1659 
z
M 791 1659 
Q 791 1022 1069 705 
Q 1347 388 1769 388 
Q 2188 388 2466 706 
Q 2744 1025 2744 1678 
Q 2744 2294 2464 2611 
Q 2184 2928 1769 2928 
Q 1347 2928 1069 2612 
Q 791 2297 791 1659 
z
" transform="scale(0.015625)"/>
      <path id="ArialMT-65" d="M 2694 1069 
L 3275 997 
Q 3138 488 2766 206 
Q 2394 -75 1816 -75 
Q 1088 -75 661 373 
Q 234 822 234 1631 
Q 234 2469 665 2931 
Q 1097 3394 1784 3394 
Q 2450 3394 2872 2941 
Q 3294 2488 3294 1666 
Q 3294 1616 3291 1516 
L 816 1516 
Q 847 969 1125 678 
Q 1403 388 1819 388 
Q 2128 388 2347 550 
Q 2566 713 2694 1069 
z
M 847 1978 
L 2700 1978 
Q 2663 2397 2488 2606 
Q 2219 2931 1791 2931 
Q 1403 2931 1139 2672 
Q 875 2413 847 1978 
z
" transform="scale(0.015625)"/>
     </defs>
     <use xlink:href="#ArialMT-55"/>
     <use xlink:href="#ArialMT-6c" x="72.216797"/>
     <use xlink:href="#ArialMT-74" x="94.433594"/>
     <use xlink:href="#ArialMT-72" x="122.216797"/>
     <use xlink:href="#ArialMT-61" x="155.517578"/>
     <use xlink:href="#ArialMT-76" x="211.132812"/>
     <use xlink:href="#ArialMT-69" x="261.132812"/>
     <use xlink:href="#ArialMT-6f" x="283.349609"/>
     <use xlink:href="#ArialMT-6c" x="338.964844"/>
     <use xlink:href="#ArialMT-65" x="361.181641"/>
     <use xlink:href="#ArialMT-74" x="416.796875"/>
    </g>
   </g>
   <g id="text_9">
    <!-- Visible -->
    <g transform="translate(156.11718 30.125498) scale(0.1 -0.1)">
     <defs>
      <path id="ArialMT-56" d="M 1803 0 
L 28 4581 
L 684 4581 
L 1875 1253 
Q 2019 853 2116 503 
Q 2222 878 2363 1253 
L 3600 4581 
L 4219 4581 
L 2425 0 
L 1803 0 
z
" transform="scale(0.015625)"/>
      <path id="ArialMT-73" d="M 197 991 
L 753 1078 
Q 800 744 1014 566 
Q 1228 388 1613 388 
Q 2000 388 2187 545 
Q 2375 703 2375 916 
Q 2375 1106 2209 1216 
Q 2094 1291 1634 1406 
Q 1016 1563 777 1677 
Q 538 1791 414 1992 
Q 291 2194 291 2438 
Q 291 2659 392 2848 
Q 494 3038 669 3163 
Q 800 3259 1026 3326 
Q 1253 3394 1513 3394 
Q 1903 3394 2198 3281 
Q 2494 3169 2634 2976 
Q 2775 2784 2828 2463 
L 2278 2388 
Q 2241 2644 2061 2787 
Q 1881 2931 1553 2931 
Q 1166 2931 1000 2803 
Q 834 2675 834 2503 
Q 834 2394 903 2306 
Q 972 2216 1119 2156 
Q 1203 2125 1616 2013 
Q 2213 1853 2448 1751 
Q 2684 1650 2818 1456 
Q 2953 1263 2953 975 
Q 2953 694 2789 445 
Q 2625 197 2315 61 
Q 2006 -75 1616 -75 
Q 969 -75 630 194 
Q 291 463 197 991 
z
" transform="scale(0.015625)"/>
      <path id="ArialMT-62" d="M 941 0 
L 419 0 
L 419 4581 
L 981 4581 
L 981 2947 
Q 1338 3394 1891 3394 
Q 2197 3394 2470 3270 
Q 2744 3147 2920 2923 
Q 3097 2700 3197 2384 
Q 3297 2069 3297 1709 
Q 3297 856 2875 390 
Q 2453 -75 1863 -75 
Q 1275 -75 941 416 
L 941 0 
z
M 934 1684 
Q 934 1088 1097 822 
Q 1363 388 1816 388 
Q 2184 388 2453 708 
Q 2722 1028 2722 1663 
Q 2722 2313 2464 2622 
Q 2206 2931 1841 2931 
Q 1472 2931 1203 2611 
Q 934 2291 934 1684 
z
" transform="scale(0.015625)"/>
     </defs>
     <use xlink:href="#ArialMT-56"/>
     <use xlink:href="#ArialMT-69" x="64.949219"/>
     <use xlink:href="#ArialMT-73" x="87.166016"/>
     <use xlink:href="#ArialMT-69" x="137.166016"/>
     <use xlink:href="#ArialMT-62" x="159.382812"/>
     <use xlink:href="#ArialMT-6c" x="214.998047"/>
     <use xlink:href="#ArialMT-65" x="237.214844"/>
    </g>
   </g>
   <g id="text_10">
    <!-- Near-IR -->
    <g transform="translate(194.700116 30.125498) scale(0.1 -0.1)">
     <defs>
      <path id="ArialMT-4e" d="M 488 0 
L 488 4581 
L 1109 4581 
L 3516 984 
L 3516 4581 
L 4097 4581 
L 4097 0 
L 3475 0 
L 1069 3600 
L 1069 0 
L 488 0 
z
" transform="scale(0.015625)"/>
      <path id="ArialMT-49" d="M 597 0 
L 597 4581 
L 1203 4581 
L 1203 0 
L 597 0 
z
" transform="scale(0.015625)"/>
      <path id="ArialMT-52" d="M 503 0 
L 503 4581 
L 2534 4581 
Q 3147 4581 3465 4457 
Q 3784 4334 3975 4021 
Q 4166 3709 4166 3331 
Q 4166 2844 3850 2509 
Q 3534 2175 2875 2084 
Q 3116 1969 3241 1856 
Q 3506 1613 3744 1247 
L 4541 0 
L 3778 0 
L 3172 953 
Q 2906 1366 2734 1584 
Q 2563 1803 2427 1890 
Q 2291 1978 2150 2013 
Q 2047 2034 1813 2034 
L 1109 2034 
L 1109 0 
L 503 0 
z
M 1109 2559 
L 2413 2559 
Q 2828 2559 3062 2645 
Q 3297 2731 3419 2920 
Q 3541 3109 3541 3331 
Q 3541 3656 3305 3865 
Q 3069 4075 2559 4075 
L 1109 4075 
L 1109 2559 
z
" transform="scale(0.015625)"/>
     </defs>
     <use xlink:href="#ArialMT-4e"/>
     <use xlink:href="#ArialMT-65" x="72.216797"/>
     <use xlink:href="#ArialMT-61" x="127.832031"/>
     <use xlink:href="#ArialMT-72" x="183.447266"/>
     <use xlink:href="#ArialMT-2d" x="216.748047"/>
     <use xlink:href="#ArialMT-49" x="250.048828"/>
     <use xlink:href="#ArialMT-52" x="277.832031"/>
    </g>
   </g>
   <g id="text_11">
    <!-- Mid-IR -->
    <g transform="translate(241.589882 30.125498) scale(0.1 -0.1)">
     <defs>
      <path id="ArialMT-4d" d="M 475 0 
L 475 4581 
L 1388 4581 
L 2472 1338 
Q 2622 884 2691 659 
Q 2769 909 2934 1394 
L 4031 4581 
L 4847 4581 
L 4847 0 
L 4263 0 
L 4263 3834 
L 2931 0 
L 2384 0 
L 1059 3900 
L 1059 0 
L 475 0 
z
" transform="scale(0.015625)"/>
      <path id="ArialMT-64" d="M 2575 0 
L 2575 419 
Q 2259 -75 1647 -75 
Q 1250 -75 917 144 
Q 584 363 401 755 
Q 219 1147 219 1656 
Q 219 2153 384 2558 
Q 550 2963 881 3178 
Q 1213 3394 1622 3394 
Q 1922 3394 2156 3267 
Q 2391 3141 2538 2938 
L 2538 4581 
L 3097 4581 
L 3097 0 
L 2575 0 
z
M 797 1656 
Q 797 1019 1065 703 
Q 1334 388 1700 388 
Q 2069 388 2326 689 
Q 2584 991 2584 1609 
Q 2584 2291 2321 2609 
Q 2059 2928 1675 2928 
Q 1300 2928 1048 2622 
Q 797 2316 797 1656 
z
" transform="scale(0.015625)"/>
     </defs>
     <use xlink:href="#ArialMT-4d"/>
     <use xlink:href="#ArialMT-69" x="83.300781"/>
     <use xlink:href="#ArialMT-64" x="105.517578"/>
     <use xlink:href="#ArialMT-2d" x="161.132812"/>
     <use xlink:href="#ArialMT-49" x="194.433594"/>
     <use xlink:href="#ArialMT-52" x="222.216797"/>
    </g>
   </g>
   <g id="text_12">
    <!-- Far-IR -->
    <g transform="translate(331.914986 30.125498) scale(0.1 -0.1)">
     <defs>
      <path id="ArialMT-46" d="M 525 0 
L 525 4581 
L 3616 4581 
L 3616 4041 
L 1131 4041 
L 1131 2622 
L 3281 2622 
L 3281 2081 
L 1131 2081 
L 1131 0 
L 525 0 
z
" transform="scale(0.015625)"/>
     </defs>
     <use xlink:href="#ArialMT-46"/>
     <use xlink:href="#ArialMT-61" x="61.083984"/>
     <use xlink:href="#ArialMT-72" x="116.699219"/>
     <use xlink:href="#ArialMT-2d" x="150"/>
     <use xlink:href="#ArialMT-49" x="183.300781"/>
     <use xlink:href="#ArialMT-52" x="211.083984"/>
    </g>
   </g>
   <g id="text_13">
    <!-- a -->
    <g transform="translate(12.992174 20.909063) scale(0.14 -0.14)">
     <defs>
      <path id="Arial-BoldMT-61" d="M 1116 2306 
L 319 2450 
Q 453 2931 781 3162 
Q 1109 3394 1756 3394 
Q 2344 3394 2631 3255 
Q 2919 3116 3036 2902 
Q 3153 2688 3153 2116 
L 3144 1091 
Q 3144 653 3186 445 
Q 3228 238 3344 0 
L 2475 0 
Q 2441 88 2391 259 
Q 2369 338 2359 363 
Q 2134 144 1878 34 
Q 1622 -75 1331 -75 
Q 819 -75 523 203 
Q 228 481 228 906 
Q 228 1188 362 1408 
Q 497 1628 739 1745 
Q 981 1863 1438 1950 
Q 2053 2066 2291 2166 
L 2291 2253 
Q 2291 2506 2166 2614 
Q 2041 2722 1694 2722 
Q 1459 2722 1328 2630 
Q 1197 2538 1116 2306 
z
M 2291 1594 
Q 2122 1538 1756 1459 
Q 1391 1381 1278 1306 
Q 1106 1184 1106 997 
Q 1106 813 1243 678 
Q 1381 544 1594 544 
Q 1831 544 2047 700 
Q 2206 819 2256 991 
Q 2291 1103 2291 1419 
L 2291 1594 
z
" transform="scale(0.015625)"/>
     </defs>
     <use xlink:href="#Arial-BoldMT-61"/>
    </g>
   </g>
   <g id="legend_1">
    <g id="patch_8">
     <path d="M 69.179533 70.559757 
L 112.579533 70.559757 
Q 114.579533 70.559757 114.579533 68.559757 
L 114.579533 41.269132 
Q 114.579533 39.269132 112.579533 39.269132 
L 69.179533 39.269132 
Q 67.179533 39.269132 67.179533 41.269132 
L 67.179533 68.559757 
Q 67.179533 70.559757 69.179533 70.559757 
z
" style="fill: #ffffff; opacity: 0.8; stroke: #cccccc; stroke-linejoin: miter"/>
    </g>
    <g id="line2d_35">
     <path d="M 71.179533 46.926944 
L 81.179533 46.926944 
L 91.179533 46.926944 
" style="fill: none; stroke-dasharray: 5.55,2.4; stroke-dashoffset: 0; stroke: #000000; stroke-opacity: 0.5; stroke-width: 1.5"/>
     <g>
      <use xlink:href="#ma96467fcec" x="81.179533" y="46.926944" style="fill-opacity: 0.5; stroke: #000000; stroke-opacity: 0.5"/>
     </g>
    </g>
    <g id="text_14">
     <!-- $R_λ$ -->
     <g transform="translate(99.179533 50.426944) scale(0.1 -0.1)">
      <use xlink:href="#DejaVuSans-Oblique-52" transform="translate(0 0.09375)"/>
      <use xlink:href="#DejaVuSans-Oblique-3bb" transform="translate(69.482422 -16.3125) scale(0.7)"/>
     </g>
    </g>
    <g id="line2d_36">
     <path d="M 71.179533 61.072257 
L 81.179533 61.072257 
L 91.179533 61.072257 
" style="fill: none; stroke-dasharray: 5.55,2.4; stroke-dashoffset: 0; stroke: #000000; stroke-opacity: 0.5; stroke-width: 1.5"/>
     <g>
      <use xlink:href="#md88687732b" x="81.179533" y="61.072257" style="fill: #ffffff; fill-opacity: 0.5; stroke: #000000; stroke-opacity: 0.5"/>
     </g>
    </g>
    <g id="text_15">
     <!-- $T_λ$ -->
     <g transform="translate(99.179533 64.572257) scale(0.1 -0.1)">
      <use xlink:href="#DejaVuSans-Oblique-54" transform="translate(0 0.09375)"/>
      <use xlink:href="#DejaVuSans-Oblique-3bb" transform="translate(61.083984 -16.3125) scale(0.7)"/>
     </g>
    </g>
   </g>
  </g>
  <g id="axes_2">
   <g id="patch_9">
    <path d="M 57.179533 383.226625 
L 421.2 383.226625 
L 421.2 211.953312 
L 57.179533 211.953312 
z
" style="fill: #ffffff"/>
   </g>
   <g id="matplotlib.axis_3">
    <g id="xtick_21">
     <g id="line2d_37">
      <g>
       <use xlink:href="#m84ba61f346" x="57.179533" y="383.226625" style="stroke: #000000; stroke-width: 0.8"/>
      </g>
     </g>
     <g id="text_16">
      <!-- $\mathdefault{10^{-1}}$ -->
      <g transform="translate(47.279533 402.039125) scale(0.1 -0.1)">
       <defs>
        <path id="ArialMT-2212" d="M 3381 1997 
L 356 1997 
L 356 2522 
L 3381 2522 
L 3381 1997 
z
" transform="scale(0.015625)"/>
       </defs>
       <use xlink:href="#ArialMT-31" transform="translate(0 0.99375)"/>
       <use xlink:href="#ArialMT-30" transform="translate(55.615234 0.99375)"/>
       <use xlink:href="#ArialMT-2212" transform="translate(112.972813 70.6875) scale(0.7)"/>
       <use xlink:href="#ArialMT-31" transform="translate(153.851719 70.6875) scale(0.7)"/>
      </g>
     </g>
    </g>
    <g id="xtick_22">
     <g id="line2d_38">
      <g>
       <use xlink:href="#m84ba61f346" x="208.985027" y="383.226625" style="stroke: #000000; stroke-width: 0.8"/>
      </g>
     </g>
     <g id="text_17">
      <!-- $\mathdefault{10^{0}}$ -->
      <g transform="translate(201.135027 402.039125) scale(0.1 -0.1)">
       <use xlink:href="#ArialMT-31" transform="translate(0 0.99375)"/>
       <use xlink:href="#ArialMT-30" transform="translate(55.615234 0.99375)"/>
       <use xlink:href="#ArialMT-30" transform="translate(112.972813 70.6875) scale(0.7)"/>
      </g>
     </g>
    </g>
    <g id="xtick_23">
     <g id="line2d_39">
      <g>
       <use xlink:href="#m84ba61f346" x="360.790521" y="383.226625" style="stroke: #000000; stroke-width: 0.8"/>
      </g>
     </g>
     <g id="text_18">
      <!-- $\mathdefault{10^{1}}$ -->
      <g transform="translate(352.940521 402.039125) scale(0.1 -0.1)">
       <use xlink:href="#ArialMT-31" transform="translate(0 0.99375)"/>
       <use xlink:href="#ArialMT-30" transform="translate(55.615234 0.99375)"/>
       <use xlink:href="#ArialMT-31" transform="translate(112.972813 70.6875) scale(0.7)"/>
      </g>
     </g>
    </g>
    <g id="xtick_24">
     <g id="line2d_40">
      <g>
       <use xlink:href="#mb9852fb2fd" x="102.87754" y="383.226625" style="stroke: #000000; stroke-width: 0.6"/>
      </g>
     </g>
    </g>
    <g id="xtick_25">
     <g id="line2d_41">
      <g>
       <use xlink:href="#mb9852fb2fd" x="129.609161" y="383.226625" style="stroke: #000000; stroke-width: 0.6"/>
      </g>
     </g>
    </g>
    <g id="xtick_26">
     <g id="line2d_42">
      <g>
       <use xlink:href="#mb9852fb2fd" x="148.575547" y="383.226625" style="stroke: #000000; stroke-width: 0.6"/>
      </g>
     </g>
    </g>
    <g id="xtick_27">
     <g id="line2d_43">
      <g>
       <use xlink:href="#mb9852fb2fd" x="163.28702" y="383.226625" style="stroke: #000000; stroke-width: 0.6"/>
      </g>
     </g>
    </g>
    <g id="xtick_28">
     <g id="line2d_44">
      <g>
       <use xlink:href="#mb9852fb2fd" x="175.307168" y="383.226625" style="stroke: #000000; stroke-width: 0.6"/>
      </g>
     </g>
    </g>
    <g id="xtick_29">
     <g id="line2d_45">
      <g>
       <use xlink:href="#mb9852fb2fd" x="185.470058" y="383.226625" style="stroke: #000000; stroke-width: 0.6"/>
      </g>
     </g>
    </g>
    <g id="xtick_30">
     <g id="line2d_46">
      <g>
       <use xlink:href="#mb9852fb2fd" x="194.273555" y="383.226625" style="stroke: #000000; stroke-width: 0.6"/>
      </g>
     </g>
    </g>
    <g id="xtick_31">
     <g id="line2d_47">
      <g>
       <use xlink:href="#mb9852fb2fd" x="202.038788" y="383.226625" style="stroke: #000000; stroke-width: 0.6"/>
      </g>
     </g>
    </g>
    <g id="xtick_32">
     <g id="line2d_48">
      <g>
       <use xlink:href="#mb9852fb2fd" x="254.683034" y="383.226625" style="stroke: #000000; stroke-width: 0.6"/>
      </g>
     </g>
    </g>
    <g id="xtick_33">
     <g id="line2d_49">
      <g>
       <use xlink:href="#mb9852fb2fd" x="281.414654" y="383.226625" style="stroke: #000000; stroke-width: 0.6"/>
      </g>
     </g>
    </g>
    <g id="xtick_34">
     <g id="line2d_50">
      <g>
       <use xlink:href="#mb9852fb2fd" x="300.381041" y="383.226625" style="stroke: #000000; stroke-width: 0.6"/>
      </g>
     </g>
    </g>
    <g id="xtick_35">
     <g id="line2d_51">
      <g>
       <use xlink:href="#mb9852fb2fd" x="315.092513" y="383.226625" style="stroke: #000000; stroke-width: 0.6"/>
      </g>
     </g>
    </g>
    <g id="xtick_36">
     <g id="line2d_52">
      <g>
       <use xlink:href="#mb9852fb2fd" x="327.112662" y="383.226625" style="stroke: #000000; stroke-width: 0.6"/>
      </g>
     </g>
    </g>
    <g id="xtick_37">
     <g id="line2d_53">
      <g>
       <use xlink:href="#mb9852fb2fd" x="337.275552" y="383.226625" style="stroke: #000000; stroke-width: 0.6"/>
      </g>
     </g>
    </g>
    <g id="xtick_38">
     <g id="line2d_54">
      <g>
       <use xlink:href="#mb9852fb2fd" x="346.079048" y="383.226625" style="stroke: #000000; stroke-width: 0.6"/>
      </g>
     </g>
    </g>
    <g id="xtick_39">
     <g id="line2d_55">
      <g>
       <use xlink:href="#mb9852fb2fd" x="353.844282" y="383.226625" style="stroke: #000000; stroke-width: 0.6"/>
      </g>
     </g>
    </g>
    <g id="xtick_40">
     <g id="line2d_56">
      <g>
       <use xlink:href="#mb9852fb2fd" x="406.488528" y="383.226625" style="stroke: #000000; stroke-width: 0.6"/>
      </g>
     </g>
    </g>
    <g id="text_19">
     <!-- Wavelength [μm] -->
     <g transform="translate(201.761642 415.184437) scale(0.1 -0.1)">
      <defs>
       <path id="ArialMT-57" d="M 1294 0 
L 78 4581 
L 700 4581 
L 1397 1578 
Q 1509 1106 1591 641 
Q 1766 1375 1797 1488 
L 2669 4581 
L 3400 4581 
L 4056 2263 
Q 4303 1400 4413 641 
Q 4500 1075 4641 1638 
L 5359 4581 
L 5969 4581 
L 4713 0 
L 4128 0 
L 3163 3491 
Q 3041 3928 3019 4028 
Q 2947 3713 2884 3491 
L 1913 0 
L 1294 0 
z
" transform="scale(0.015625)"/>
       <path id="ArialMT-6e" d="M 422 0 
L 422 3319 
L 928 3319 
L 928 2847 
Q 1294 3394 1984 3394 
Q 2284 3394 2536 3286 
Q 2788 3178 2913 3003 
Q 3038 2828 3088 2588 
Q 3119 2431 3119 2041 
L 3119 0 
L 2556 0 
L 2556 2019 
Q 2556 2363 2490 2533 
Q 2425 2703 2258 2804 
Q 2091 2906 1866 2906 
Q 1506 2906 1245 2678 
Q 984 2450 984 1813 
L 984 0 
L 422 0 
z
" transform="scale(0.015625)"/>
       <path id="ArialMT-67" d="M 319 -275 
L 866 -356 
Q 900 -609 1056 -725 
Q 1266 -881 1628 -881 
Q 2019 -881 2231 -725 
Q 2444 -569 2519 -288 
Q 2563 -116 2559 434 
Q 2191 0 1641 0 
Q 956 0 581 494 
Q 206 988 206 1678 
Q 206 2153 378 2554 
Q 550 2956 876 3175 
Q 1203 3394 1644 3394 
Q 2231 3394 2613 2919 
L 2613 3319 
L 3131 3319 
L 3131 450 
Q 3131 -325 2973 -648 
Q 2816 -972 2473 -1159 
Q 2131 -1347 1631 -1347 
Q 1038 -1347 672 -1080 
Q 306 -813 319 -275 
z
M 784 1719 
Q 784 1066 1043 766 
Q 1303 466 1694 466 
Q 2081 466 2343 764 
Q 2606 1063 2606 1700 
Q 2606 2309 2336 2618 
Q 2066 2928 1684 2928 
Q 1309 2928 1046 2623 
Q 784 2319 784 1719 
z
" transform="scale(0.015625)"/>
       <path id="ArialMT-68" d="M 422 0 
L 422 4581 
L 984 4581 
L 984 2938 
Q 1378 3394 1978 3394 
Q 2347 3394 2619 3248 
Q 2891 3103 3008 2847 
Q 3125 2591 3125 2103 
L 3125 0 
L 2563 0 
L 2563 2103 
Q 2563 2525 2380 2717 
Q 2197 2909 1863 2909 
Q 1613 2909 1392 2779 
Q 1172 2650 1078 2428 
Q 984 2206 984 1816 
L 984 0 
L 422 0 
z
" transform="scale(0.015625)"/>
       <path id="ArialMT-3bc" d="M 3181 3319 
L 3181 0 
L 2678 0 
L 2678 394 
Q 2516 144 2356 50 
Q 2138 -78 1847 -78 
Q 1588 -78 1388 25 
Q 1238 103 1056 334 
L 1056 -1272 
L 500 -1272 
L 500 3319 
L 1056 3319 
L 1056 1913 
Q 1056 1147 1137 920 
Q 1219 694 1401 562 
Q 1584 431 1822 431 
Q 2072 431 2269 568 
Q 2466 706 2547 923 
Q 2628 1141 2628 1903 
L 2628 3319 
L 3181 3319 
z
" transform="scale(0.015625)"/>
       <path id="ArialMT-6d" d="M 422 0 
L 422 3319 
L 925 3319 
L 925 2853 
Q 1081 3097 1340 3245 
Q 1600 3394 1931 3394 
Q 2300 3394 2536 3241 
Q 2772 3088 2869 2813 
Q 3263 3394 3894 3394 
Q 4388 3394 4653 3120 
Q 4919 2847 4919 2278 
L 4919 0 
L 4359 0 
L 4359 2091 
Q 4359 2428 4304 2576 
Q 4250 2725 4106 2815 
Q 3963 2906 3769 2906 
Q 3419 2906 3187 2673 
Q 2956 2441 2956 1928 
L 2956 0 
L 2394 0 
L 2394 2156 
Q 2394 2531 2256 2718 
Q 2119 2906 1806 2906 
Q 1569 2906 1367 2781 
Q 1166 2656 1075 2415 
Q 984 2175 984 1722 
L 984 0 
L 422 0 
z
" transform="scale(0.015625)"/>
      </defs>
      <use xlink:href="#ArialMT-57"/>
      <use xlink:href="#ArialMT-61" x="90.634766"/>
      <use xlink:href="#ArialMT-76" x="146.25"/>
      <use xlink:href="#ArialMT-65" x="196.25"/>
      <use xlink:href="#ArialMT-6c" x="251.865234"/>
      <use xlink:href="#ArialMT-65" x="274.082031"/>
      <use xlink:href="#ArialMT-6e" x="329.697266"/>
      <use xlink:href="#ArialMT-67" x="385.3125"/>
      <use xlink:href="#ArialMT-74" x="440.927734"/>
      <use xlink:href="#ArialMT-68" x="468.710938"/>
      <use xlink:href="#ArialMT-20" x="524.326172"/>
      <use xlink:href="#ArialMT-5b" x="552.109375"/>
      <use xlink:href="#ArialMT-3bc" x="579.892578"/>
      <use xlink:href="#ArialMT-6d" x="637.509766"/>
      <use xlink:href="#ArialMT-5d" x="720.810547"/>
     </g>
    </g>
   </g>
   <g id="matplotlib.axis_4">
    <g id="ytick_7">
     <g id="line2d_57">
      <g>
       <use xlink:href="#me7ad21e5b5" x="57.179533" y="344.92344" style="stroke: #000000; stroke-width: 0.8"/>
      </g>
     </g>
     <g id="text_20">
      <!-- $\mathdefault{10^{0}}$ -->
      <g transform="translate(32.979533 350.07969) scale(0.1 -0.1)">
       <use xlink:href="#ArialMT-31" transform="translate(0 0.99375)"/>
       <use xlink:href="#ArialMT-30" transform="translate(55.615234 0.99375)"/>
       <use xlink:href="#ArialMT-30" transform="translate(112.972813 70.6875) scale(0.7)"/>
      </g>
     </g>
    </g>
    <g id="ytick_8">
     <g id="line2d_58">
      <g>
       <use xlink:href="#me7ad21e5b5" x="57.179533" y="306.57842" style="stroke: #000000; stroke-width: 0.8"/>
      </g>
     </g>
     <g id="text_21">
      <!-- $\mathdefault{10^{1}}$ -->
      <g transform="translate(32.979533 311.73467) scale(0.1 -0.1)">
       <use xlink:href="#ArialMT-31" transform="translate(0 0.99375)"/>
       <use xlink:href="#ArialMT-30" transform="translate(55.615234 0.99375)"/>
       <use xlink:href="#ArialMT-31" transform="translate(112.972813 70.6875) scale(0.7)"/>
      </g>
     </g>
    </g>
    <g id="ytick_9">
     <g id="line2d_59">
      <g>
       <use xlink:href="#me7ad21e5b5" x="57.179533" y="268.233401" style="stroke: #000000; stroke-width: 0.8"/>
      </g>
     </g>
     <g id="text_22">
      <!-- $\mathdefault{10^{2}}$ -->
      <g transform="translate(32.979533 273.389651) scale(0.1 -0.1)">
       <use xlink:href="#ArialMT-31" transform="translate(0 0.99375)"/>
       <use xlink:href="#ArialMT-30" transform="translate(55.615234 0.99375)"/>
       <use xlink:href="#ArialMT-32" transform="translate(112.972813 70.6875) scale(0.7)"/>
      </g>
     </g>
    </g>
    <g id="ytick_10">
     <g id="line2d_60">
      <g>
       <use xlink:href="#me7ad21e5b5" x="57.179533" y="229.888382" style="stroke: #000000; stroke-width: 0.8"/>
      </g>
     </g>
     <g id="text_23">
      <!-- $\mathdefault{10^{3}}$ -->
      <g transform="translate(32.979533 235.044632) scale(0.1 -0.1)">
       <defs>
        <path id="ArialMT-33" d="M 269 1209 
L 831 1284 
Q 928 806 1161 595 
Q 1394 384 1728 384 
Q 2125 384 2398 659 
Q 2672 934 2672 1341 
Q 2672 1728 2419 1979 
Q 2166 2231 1775 2231 
Q 1616 2231 1378 2169 
L 1441 2663 
Q 1497 2656 1531 2656 
Q 1891 2656 2178 2843 
Q 2466 3031 2466 3422 
Q 2466 3731 2256 3934 
Q 2047 4138 1716 4138 
Q 1388 4138 1169 3931 
Q 950 3725 888 3313 
L 325 3413 
Q 428 3978 793 4289 
Q 1159 4600 1703 4600 
Q 2078 4600 2393 4439 
Q 2709 4278 2876 4000 
Q 3044 3722 3044 3409 
Q 3044 3113 2884 2869 
Q 2725 2625 2413 2481 
Q 2819 2388 3044 2092 
Q 3269 1797 3269 1353 
Q 3269 753 2831 336 
Q 2394 -81 1725 -81 
Q 1122 -81 723 278 
Q 325 638 269 1209 
z
" transform="scale(0.015625)"/>
       </defs>
       <use xlink:href="#ArialMT-31" transform="translate(0 0.99375)"/>
       <use xlink:href="#ArialMT-30" transform="translate(55.615234 0.99375)"/>
       <use xlink:href="#ArialMT-33" transform="translate(112.972813 70.6875) scale(0.7)"/>
      </g>
     </g>
    </g>
    <g id="ytick_11">
     <g id="line2d_61">
      <defs>
       <path id="mbd899b6543" d="M 0 0 
L -2.5 0 
" style="stroke: #000000; stroke-width: 0.6"/>
      </defs>
      <g>
       <use xlink:href="#mbd899b6543" x="57.179533" y="371.725458" style="stroke: #000000; stroke-width: 0.6"/>
      </g>
     </g>
    </g>
    <g id="ytick_12">
     <g id="line2d_62">
      <g>
       <use xlink:href="#mbd899b6543" x="57.179533" y="364.973235" style="stroke: #000000; stroke-width: 0.6"/>
      </g>
     </g>
    </g>
    <g id="ytick_13">
     <g id="line2d_63">
      <g>
       <use xlink:href="#mbd899b6543" x="57.179533" y="360.182457" style="stroke: #000000; stroke-width: 0.6"/>
      </g>
     </g>
    </g>
    <g id="ytick_14">
     <g id="line2d_64">
      <g>
       <use xlink:href="#mbd899b6543" x="57.179533" y="356.466441" style="stroke: #000000; stroke-width: 0.6"/>
      </g>
     </g>
    </g>
    <g id="ytick_15">
     <g id="line2d_65">
      <g>
       <use xlink:href="#mbd899b6543" x="57.179533" y="353.430234" style="stroke: #000000; stroke-width: 0.6"/>
      </g>
     </g>
    </g>
    <g id="ytick_16">
     <g id="line2d_66">
      <g>
       <use xlink:href="#mbd899b6543" x="57.179533" y="350.863158" style="stroke: #000000; stroke-width: 0.6"/>
      </g>
     </g>
    </g>
    <g id="ytick_17">
     <g id="line2d_67">
      <g>
       <use xlink:href="#mbd899b6543" x="57.179533" y="348.639456" style="stroke: #000000; stroke-width: 0.6"/>
      </g>
     </g>
    </g>
    <g id="ytick_18">
     <g id="line2d_68">
      <g>
       <use xlink:href="#mbd899b6543" x="57.179533" y="346.678012" style="stroke: #000000; stroke-width: 0.6"/>
      </g>
     </g>
    </g>
    <g id="ytick_19">
     <g id="line2d_69">
      <g>
       <use xlink:href="#mbd899b6543" x="57.179533" y="333.380439" style="stroke: #000000; stroke-width: 0.6"/>
      </g>
     </g>
    </g>
    <g id="ytick_20">
     <g id="line2d_70">
      <g>
       <use xlink:href="#mbd899b6543" x="57.179533" y="326.628216" style="stroke: #000000; stroke-width: 0.6"/>
      </g>
     </g>
    </g>
    <g id="ytick_21">
     <g id="line2d_71">
      <g>
       <use xlink:href="#mbd899b6543" x="57.179533" y="321.837438" style="stroke: #000000; stroke-width: 0.6"/>
      </g>
     </g>
    </g>
    <g id="ytick_22">
     <g id="line2d_72">
      <g>
       <use xlink:href="#mbd899b6543" x="57.179533" y="318.121421" style="stroke: #000000; stroke-width: 0.6"/>
      </g>
     </g>
    </g>
    <g id="ytick_23">
     <g id="line2d_73">
      <g>
       <use xlink:href="#mbd899b6543" x="57.179533" y="315.085215" style="stroke: #000000; stroke-width: 0.6"/>
      </g>
     </g>
    </g>
    <g id="ytick_24">
     <g id="line2d_74">
      <g>
       <use xlink:href="#mbd899b6543" x="57.179533" y="312.518139" style="stroke: #000000; stroke-width: 0.6"/>
      </g>
     </g>
    </g>
    <g id="ytick_25">
     <g id="line2d_75">
      <g>
       <use xlink:href="#mbd899b6543" x="57.179533" y="310.294437" style="stroke: #000000; stroke-width: 0.6"/>
      </g>
     </g>
    </g>
    <g id="ytick_26">
     <g id="line2d_76">
      <g>
       <use xlink:href="#mbd899b6543" x="57.179533" y="308.332992" style="stroke: #000000; stroke-width: 0.6"/>
      </g>
     </g>
    </g>
    <g id="ytick_27">
     <g id="line2d_77">
      <g>
       <use xlink:href="#mbd899b6543" x="57.179533" y="295.035419" style="stroke: #000000; stroke-width: 0.6"/>
      </g>
     </g>
    </g>
    <g id="ytick_28">
     <g id="line2d_78">
      <g>
       <use xlink:href="#mbd899b6543" x="57.179533" y="288.283197" style="stroke: #000000; stroke-width: 0.6"/>
      </g>
     </g>
    </g>
    <g id="ytick_29">
     <g id="line2d_79">
      <g>
       <use xlink:href="#mbd899b6543" x="57.179533" y="283.492418" style="stroke: #000000; stroke-width: 0.6"/>
      </g>
     </g>
    </g>
    <g id="ytick_30">
     <g id="line2d_80">
      <g>
       <use xlink:href="#mbd899b6543" x="57.179533" y="279.776402" style="stroke: #000000; stroke-width: 0.6"/>
      </g>
     </g>
    </g>
    <g id="ytick_31">
     <g id="line2d_81">
      <g>
       <use xlink:href="#mbd899b6543" x="57.179533" y="276.740196" style="stroke: #000000; stroke-width: 0.6"/>
      </g>
     </g>
    </g>
    <g id="ytick_32">
     <g id="line2d_82">
      <g>
       <use xlink:href="#mbd899b6543" x="57.179533" y="274.17312" style="stroke: #000000; stroke-width: 0.6"/>
      </g>
     </g>
    </g>
    <g id="ytick_33">
     <g id="line2d_83">
      <g>
       <use xlink:href="#mbd899b6543" x="57.179533" y="271.949417" style="stroke: #000000; stroke-width: 0.6"/>
      </g>
     </g>
    </g>
    <g id="ytick_34">
     <g id="line2d_84">
      <g>
       <use xlink:href="#mbd899b6543" x="57.179533" y="269.987973" style="stroke: #000000; stroke-width: 0.6"/>
      </g>
     </g>
    </g>
    <g id="ytick_35">
     <g id="line2d_85">
      <g>
       <use xlink:href="#mbd899b6543" x="57.179533" y="256.6904" style="stroke: #000000; stroke-width: 0.6"/>
      </g>
     </g>
    </g>
    <g id="ytick_36">
     <g id="line2d_86">
      <g>
       <use xlink:href="#mbd899b6543" x="57.179533" y="249.938177" style="stroke: #000000; stroke-width: 0.6"/>
      </g>
     </g>
    </g>
    <g id="ytick_37">
     <g id="line2d_87">
      <g>
       <use xlink:href="#mbd899b6543" x="57.179533" y="245.147399" style="stroke: #000000; stroke-width: 0.6"/>
      </g>
     </g>
    </g>
    <g id="ytick_38">
     <g id="line2d_88">
      <g>
       <use xlink:href="#mbd899b6543" x="57.179533" y="241.431383" style="stroke: #000000; stroke-width: 0.6"/>
      </g>
     </g>
    </g>
    <g id="ytick_39">
     <g id="line2d_89">
      <g>
       <use xlink:href="#mbd899b6543" x="57.179533" y="238.395176" style="stroke: #000000; stroke-width: 0.6"/>
      </g>
     </g>
    </g>
    <g id="ytick_40">
     <g id="line2d_90">
      <g>
       <use xlink:href="#mbd899b6543" x="57.179533" y="235.8281" style="stroke: #000000; stroke-width: 0.6"/>
      </g>
     </g>
    </g>
    <g id="ytick_41">
     <g id="line2d_91">
      <g>
       <use xlink:href="#mbd899b6543" x="57.179533" y="233.604398" style="stroke: #000000; stroke-width: 0.6"/>
      </g>
     </g>
    </g>
    <g id="ytick_42">
     <g id="line2d_92">
      <g>
       <use xlink:href="#mbd899b6543" x="57.179533" y="231.642954" style="stroke: #000000; stroke-width: 0.6"/>
      </g>
     </g>
    </g>
    <g id="ytick_43">
     <g id="line2d_93">
      <g>
       <use xlink:href="#mbd899b6543" x="57.179533" y="218.345381" style="stroke: #000000; stroke-width: 0.6"/>
      </g>
     </g>
    </g>
    <g id="text_24">
     <!-- $K_λ$, $S_λ$ [mm$\mathregular{^{-1}}$] -->
     <g transform="translate(26.979533 328.089969) rotate(-90) scale(0.1 -0.1)">
      <defs>
       <path id="DejaVuSans-Oblique-4b" d="M 1081 4666 
L 1716 4666 
L 1331 2700 
L 3781 4666 
L 4622 4666 
L 1850 2438 
L 3878 0 
L 3109 0 
L 1247 2272 
L 806 0 
L 172 0 
L 1081 4666 
z
" transform="scale(0.015625)"/>
       <path id="DejaVuSans-Oblique-53" d="M 3859 4513 
L 3738 3897 
Q 3422 4066 3111 4152 
Q 2800 4238 2509 4238 
Q 1944 4238 1609 3991 
Q 1275 3744 1275 3334 
Q 1275 3109 1398 2989 
Q 1522 2869 2034 2731 
L 2413 2638 
Q 3053 2472 3303 2217 
Q 3553 1963 3553 1503 
Q 3553 797 2998 353 
Q 2444 -91 1538 -91 
Q 1166 -91 791 -17 
Q 416 56 38 206 
L 166 856 
Q 513 641 861 531 
Q 1209 422 1556 422 
Q 2147 422 2503 684 
Q 2859 947 2859 1369 
Q 2859 1650 2717 1795 
Q 2575 1941 2106 2059 
L 1728 2156 
Q 1081 2325 845 2545 
Q 609 2766 609 3163 
Q 609 3859 1145 4304 
Q 1681 4750 2541 4750 
Q 2875 4750 3203 4690 
Q 3531 4631 3859 4513 
z
" transform="scale(0.015625)"/>
      </defs>
      <use xlink:href="#DejaVuSans-Oblique-4b" transform="translate(0 0.99375)"/>
      <use xlink:href="#DejaVuSans-Oblique-3bb" transform="translate(65.576172 -15.4125) scale(0.7)"/>
      <use xlink:href="#ArialMT-2c" transform="translate(109.736328 0.99375)"/>
      <use xlink:href="#ArialMT-20" transform="translate(137.519531 0.99375)"/>
      <use xlink:href="#DejaVuSans-Oblique-53" transform="translate(165.302734 0.99375)"/>
      <use xlink:href="#DejaVuSans-Oblique-3bb" transform="translate(228.779297 -15.4125) scale(0.7)"/>
      <use xlink:href="#ArialMT-20" transform="translate(272.939453 0.99375)"/>
      <use xlink:href="#ArialMT-5b" transform="translate(300.722656 0.99375)"/>
      <use xlink:href="#ArialMT-6d" transform="translate(328.505859 0.99375)"/>
      <use xlink:href="#ArialMT-6d" transform="translate(411.806641 0.99375)"/>
      <use xlink:href="#ArialMT-2212" transform="translate(496.849766 70.6875) scale(0.7)"/>
      <use xlink:href="#ArialMT-31" transform="translate(537.728672 70.6875) scale(0.7)"/>
      <use xlink:href="#ArialMT-5d" transform="translate(581.637461 0.99375)"/>
     </g>
    </g>
   </g>
   <g id="line2d_94">
    <path d="M 129.609161 332.567935 
L 139.772051 330.344232 
L 143.435676 330.908796 
L 148.575547 331.793235 
L 156.340781 335.135011 
L 163.28702 347.629872 
L 169.570657 344.92344 
L 175.307168 356.466441 
L 180.584247 366.727807 
L 185.470058 370.912954 
L 190.01864 373.48003 
L 194.273555 375.441474 
L 202.038788 372.579647 
L 208.985027 370.912954 
L 215.268664 375.441474 
L 221.005175 368.009442 
L 226.282254 366.727807 
L 231.168065 350.863158 
L 235.716647 341.887233 
L 239.971562 346.311996 
L 247.736796 347.629872 
L 254.683034 329.334649 
L 260.966671 331.418994 
L 266.703182 331.418994 
" clip-path="url(#pcd9eb6bb84)" style="fill: none; stroke-dasharray: 5.55,2.4; stroke-dashoffset: 0; stroke: #000000; stroke-opacity: 0.5; stroke-width: 1.5"/>
    <g clip-path="url(#pcd9eb6bb84)">
     <use xlink:href="#ma96467fcec" x="129.609161" y="332.567935" style="fill-opacity: 0.5; stroke: #000000; stroke-opacity: 0.5"/>
     <use xlink:href="#ma96467fcec" x="139.772051" y="330.344232" style="fill-opacity: 0.5; stroke: #000000; stroke-opacity: 0.5"/>
     <use xlink:href="#ma96467fcec" x="143.435676" y="330.908796" style="fill-opacity: 0.5; stroke: #000000; stroke-opacity: 0.5"/>
     <use xlink:href="#ma96467fcec" x="148.575547" y="331.793235" style="fill-opacity: 0.5; stroke: #000000; stroke-opacity: 0.5"/>
     <use xlink:href="#ma96467fcec" x="156.340781" y="335.135011" style="fill-opacity: 0.5; stroke: #000000; stroke-opacity: 0.5"/>
     <use xlink:href="#ma96467fcec" x="163.28702" y="347.629872" style="fill-opacity: 0.5; stroke: #000000; stroke-opacity: 0.5"/>
     <use xlink:href="#ma96467fcec" x="169.570657" y="344.92344" style="fill-opacity: 0.5; stroke: #000000; stroke-opacity: 0.5"/>
     <use xlink:href="#ma96467fcec" x="175.307168" y="356.466441" style="fill-opacity: 0.5; stroke: #000000; stroke-opacity: 0.5"/>
     <use xlink:href="#ma96467fcec" x="180.584247" y="366.727807" style="fill-opacity: 0.5; stroke: #000000; stroke-opacity: 0.5"/>
     <use xlink:href="#ma96467fcec" x="185.470058" y="370.912954" style="fill-opacity: 0.5; stroke: #000000; stroke-opacity: 0.5"/>
     <use xlink:href="#ma96467fcec" x="190.01864" y="373.48003" style="fill-opacity: 0.5; stroke: #000000; stroke-opacity: 0.5"/>
     <use xlink:href="#ma96467fcec" x="194.273555" y="375.441474" style="fill-opacity: 0.5; stroke: #000000; stroke-opacity: 0.5"/>
     <use xlink:href="#ma96467fcec" x="202.038788" y="372.579647" style="fill-opacity: 0.5; stroke: #000000; stroke-opacity: 0.5"/>
     <use xlink:href="#ma96467fcec" x="208.985027" y="370.912954" style="fill-opacity: 0.5; stroke: #000000; stroke-opacity: 0.5"/>
     <use xlink:href="#ma96467fcec" x="215.268664" y="375.441474" style="fill-opacity: 0.5; stroke: #000000; stroke-opacity: 0.5"/>
     <use xlink:href="#ma96467fcec" x="221.005175" y="368.009442" style="fill-opacity: 0.5; stroke: #000000; stroke-opacity: 0.5"/>
     <use xlink:href="#ma96467fcec" x="226.282254" y="366.727807" style="fill-opacity: 0.5; stroke: #000000; stroke-opacity: 0.5"/>
     <use xlink:href="#ma96467fcec" x="231.168065" y="350.863158" style="fill-opacity: 0.5; stroke: #000000; stroke-opacity: 0.5"/>
     <use xlink:href="#ma96467fcec" x="235.716647" y="341.887233" style="fill-opacity: 0.5; stroke: #000000; stroke-opacity: 0.5"/>
     <use xlink:href="#ma96467fcec" x="239.971562" y="346.311996" style="fill-opacity: 0.5; stroke: #000000; stroke-opacity: 0.5"/>
     <use xlink:href="#ma96467fcec" x="247.736796" y="347.629872" style="fill-opacity: 0.5; stroke: #000000; stroke-opacity: 0.5"/>
     <use xlink:href="#ma96467fcec" x="254.683034" y="329.334649" style="fill-opacity: 0.5; stroke: #000000; stroke-opacity: 0.5"/>
     <use xlink:href="#ma96467fcec" x="260.966671" y="331.418994" style="fill-opacity: 0.5; stroke: #000000; stroke-opacity: 0.5"/>
     <use xlink:href="#ma96467fcec" x="266.703182" y="331.418994" style="fill-opacity: 0.5; stroke: #000000; stroke-opacity: 0.5"/>
    </g>
   </g>
   <g id="line2d_95">
    <path d="M 129.609161 336.086871 
L 139.772051 337.986838 
L 143.435676 337.625167 
L 148.575547 337.096455 
L 156.340781 333.380439 
L 163.28702 341.887233 
L 169.570657 340.55428 
L 175.307168 341.887233 
L 180.584247 344.92344 
L 185.470058 345.777629 
L 190.01864 347.629872 
L 194.273555 346.678012 
L 202.038788 344.92344 
L 208.985027 346.678012 
L 215.268664 351.345889 
L 221.005175 353.430234 
L 226.282254 355.813297 
L 231.168065 356.802877 
L 235.716647 359.77125 
L 239.971562 358.221013 
L 247.736796 358.978099 
L 254.683034 358.221013 
L 260.966671 357.674963 
L 266.703182 357.674963 
" clip-path="url(#pcd9eb6bb84)" style="fill: none; stroke-dasharray: 5.55,2.4; stroke-dashoffset: 0; stroke: #000000; stroke-opacity: 0.5; stroke-width: 1.5"/>
    <g clip-path="url(#pcd9eb6bb84)">
     <use xlink:href="#md88687732b" x="129.609161" y="336.086871" style="fill: #ffffff; fill-opacity: 0.5; stroke: #000000; stroke-opacity: 0.5"/>
     <use xlink:href="#md88687732b" x="139.772051" y="337.986838" style="fill: #ffffff; fill-opacity: 0.5; stroke: #000000; stroke-opacity: 0.5"/>
     <use xlink:href="#md88687732b" x="143.435676" y="337.625167" style="fill: #ffffff; fill-opacity: 0.5; stroke: #000000; stroke-opacity: 0.5"/>
     <use xlink:href="#md88687732b" x="148.575547" y="337.096455" style="fill: #ffffff; fill-opacity: 0.5; stroke: #000000; stroke-opacity: 0.5"/>
     <use xlink:href="#md88687732b" x="156.340781" y="333.380439" style="fill: #ffffff; fill-opacity: 0.5; stroke: #000000; stroke-opacity: 0.5"/>
     <use xlink:href="#md88687732b" x="163.28702" y="341.887233" style="fill: #ffffff; fill-opacity: 0.5; stroke: #000000; stroke-opacity: 0.5"/>
     <use xlink:href="#md88687732b" x="169.570657" y="340.55428" style="fill: #ffffff; fill-opacity: 0.5; stroke: #000000; stroke-opacity: 0.5"/>
     <use xlink:href="#md88687732b" x="175.307168" y="341.887233" style="fill: #ffffff; fill-opacity: 0.5; stroke: #000000; stroke-opacity: 0.5"/>
     <use xlink:href="#md88687732b" x="180.584247" y="344.92344" style="fill: #ffffff; fill-opacity: 0.5; stroke: #000000; stroke-opacity: 0.5"/>
     <use xlink:href="#md88687732b" x="185.470058" y="345.777629" style="fill: #ffffff; fill-opacity: 0.5; stroke: #000000; stroke-opacity: 0.5"/>
     <use xlink:href="#md88687732b" x="190.01864" y="347.629872" style="fill: #ffffff; fill-opacity: 0.5; stroke: #000000; stroke-opacity: 0.5"/>
     <use xlink:href="#md88687732b" x="194.273555" y="346.678012" style="fill: #ffffff; fill-opacity: 0.5; stroke: #000000; stroke-opacity: 0.5"/>
     <use xlink:href="#md88687732b" x="202.038788" y="344.92344" style="fill: #ffffff; fill-opacity: 0.5; stroke: #000000; stroke-opacity: 0.5"/>
     <use xlink:href="#md88687732b" x="208.985027" y="346.678012" style="fill: #ffffff; fill-opacity: 0.5; stroke: #000000; stroke-opacity: 0.5"/>
     <use xlink:href="#md88687732b" x="215.268664" y="351.345889" style="fill: #ffffff; fill-opacity: 0.5; stroke: #000000; stroke-opacity: 0.5"/>
     <use xlink:href="#md88687732b" x="221.005175" y="353.430234" style="fill: #ffffff; fill-opacity: 0.5; stroke: #000000; stroke-opacity: 0.5"/>
     <use xlink:href="#md88687732b" x="226.282254" y="355.813297" style="fill: #ffffff; fill-opacity: 0.5; stroke: #000000; stroke-opacity: 0.5"/>
     <use xlink:href="#md88687732b" x="231.168065" y="356.802877" style="fill: #ffffff; fill-opacity: 0.5; stroke: #000000; stroke-opacity: 0.5"/>
     <use xlink:href="#md88687732b" x="235.716647" y="359.77125" style="fill: #ffffff; fill-opacity: 0.5; stroke: #000000; stroke-opacity: 0.5"/>
     <use xlink:href="#md88687732b" x="239.971562" y="358.221013" style="fill: #ffffff; fill-opacity: 0.5; stroke: #000000; stroke-opacity: 0.5"/>
     <use xlink:href="#md88687732b" x="247.736796" y="358.978099" style="fill: #ffffff; fill-opacity: 0.5; stroke: #000000; stroke-opacity: 0.5"/>
     <use xlink:href="#md88687732b" x="254.683034" y="358.221013" style="fill: #ffffff; fill-opacity: 0.5; stroke: #000000; stroke-opacity: 0.5"/>
     <use xlink:href="#md88687732b" x="260.966671" y="357.674963" style="fill: #ffffff; fill-opacity: 0.5; stroke: #000000; stroke-opacity: 0.5"/>
     <use xlink:href="#md88687732b" x="266.703182" y="357.674963" style="fill: #ffffff; fill-opacity: 0.5; stroke: #000000; stroke-opacity: 0.5"/>
    </g>
   </g>
   <g id="line2d_96">
    <path d="M 266.977313 331.418994 
L 269.394506 331.418994 
L 269.657693 318.663031 
L 270.180937 318.663031 
L 270.441009 315.112993 
L 271.47116 315.112993 
L 271.726202 305.576675 
L 272.485461 305.576675 
L 272.736617 289.774643 
L 273.731779 289.774643 
L 273.978241 277.509873 
L 274.954974 277.509873 
L 275.196913 265.519476 
L 276.155887 265.519476 
L 276.393466 249.985985 
L 277.335315 249.985985 
L 277.56869 235.814783 
L 278.494014 235.814783 
L 278.72333 227.912881 
L 279.6327 227.912881 
L 279.858096 219.738463 
L 280.752053 219.738463 
L 280.973661 221.649378 
L 281.63405 221.649378 
L 281.852718 226.831233 
L 282.720208 226.831233 
L 282.935308 233.648587 
L 283.788761 233.648587 
L 284.000409 242.919066 
L 284.840271 242.919066 
L 285.048576 246.192877 
L 285.669569 246.192877 
L 285.875273 256.826678 
L 286.691733 256.826678 
L 286.894278 261.463425 
L 287.698291 261.463425 
L 287.897772 271.006579 
L 288.689713 271.006579 
L 288.886221 276.459474 
L 289.666446 276.459474 
L 289.860068 282.187671 
L 290.81974 282.187671 
L 291.01001 283.281434 
L 291.765643 283.281434 
L 291.953206 292.824212 
L 292.883098 292.824212 
L 293.067513 296.101302 
L 293.800057 296.101302 
L 293.981928 297.192642 
L 294.883834 297.192642 
L 295.062744 298.279414 
L 295.950083 298.279414 
L 296.126127 299.377125 
L 296.999362 299.377125 
L 297.17263 299.926417 
L 298.032202 299.926417 
L 298.20278 300.196654 
L 299.217081 300.196654 
L 299.384625 300.47135 
L 300.216014 300.47135 
L 300.381041 299.660495 
L 301.362622 299.660495 
L 301.524807 295.845842 
L 302.489629 295.845842 
L 302.649068 293.125865 
L 303.597693 293.125865 
L 303.754479 290.399399 
L 304.687442 290.399399 
L 304.84166 288.222247 
L 305.75947 288.222247 
L 305.911204 287.407373 
L 306.814345 287.407373 
L 306.963673 285.77809 
L 307.852607 285.77809 
L 307.999605 285.233119 
L 309.01951 285.233119 
L 309.163931 285.512773 
L 310.023878 285.512773 
L 310.166118 285.787644 
L 311.153298 285.787644 
L 311.293125 286.878661 
L 312.125914 286.878661 
L 312.263695 287.428453 
L 313.220185 287.428453 
L 313.3557 287.704946 
L 314.296589 287.704946 
L 314.429912 288.796158 
L 315.355701 288.796158 
L 315.486901 289.343163 
L 316.398067 289.343163 
L 316.527211 289.617538 
L 317.551361 289.617538 
L 317.678268 290.437261 
L 318.559844 290.437261 
L 318.684826 290.717578 
L 321.853894 290.724004 
L 321.972791 289.908746 
L 322.916324 289.908746 
L 323.033322 284.456529 
L 324.077064 284.456529 
L 324.192021 279.280925 
L 325.21772 279.280925 
L 325.330707 271.652329 
L 326.338976 271.652329 
L 326.560957 266.749463 
L 327.441482 266.749463 
L 327.659787 264.026435 
L 328.418215 264.026435 
L 328.633316 266.209901 
L 329.486768 266.209901 
L 329.698416 268.394042 
L 330.538278 268.394042 
L 330.746583 270.849954 
L 331.57328 270.849954 
L 331.778345 274.39585 
L 332.693325 274.39585 
L 332.89494 275.216192 
L 334.780152 275.216192 
L 334.975495 277.13053 
L 338.024745 277.13053 
L 338.210721 277.957673 
L 339.041179 277.957673 
L 339.224313 278.504022 
L 343.301824 278.507108 
L 343.473512 279.062522 
L 348.664803 279.072097 
L 348.823094 278.802906 
L 351.911635 278.802906 
L 352.062328 278.268109 
L 354.063678 278.271151 
L 354.209537 277.99953 
L 355.149835 277.99953 
L 355.293314 277.457633 
L 357.269899 277.457633 
L 357.408841 276.646095 
L 358.373327 276.646095 
L 358.509966 276.375085 
L 359.458591 276.375085 
L 359.593001 275.561676 
L 360.526279 275.561676 
L 360.658532 275.019798 
L 361.576951 275.019798 
L 361.707115 273.932212 
L 362.675243 273.932212 
L 362.803259 271.481443 
L 364.880408 271.485492 
L 365.004217 269.306387 
L 365.925447 269.306387 
L 366.04731 267.128483 
L 367.014195 267.128483 
L 367.134065 264.951989 
L 368.144252 264.951989 
L 368.262087 262.500965 
L 369.255265 262.500965 
L 369.371132 260.323359 
L 370.347866 260.323359 
L 370.46183 259.23598 
L 371.422653 259.23598 
L 371.534776 257.331225 
L 372.4802 257.331225 
L 372.645642 255.698066 
L 373.57538 255.698066 
L 373.738099 253.247726 
L 375.76518 253.247726 
L 375.922589 251.345449 
L 376.807546 251.345449 
L 376.962489 250.803472 
L 378.994339 250.803472 
L 379.144232 249.719248 
L 381.110919 249.721987 
L 381.256083 249.452402 
L 382.215754 249.452402 
L 382.358508 249.182337 
L 387.566079 249.182337 
L 387.697716 248.924415 
L 390.780639 248.930161 
L 390.906018 249.205694 
L 393.965411 249.205694 
L 394.084882 250.032255 
L 395.032939 250.032255 
L 395.150493 250.580445 
L 396.122044 250.580445 
L 396.237674 250.855592 
L 397.155484 250.855592 
L 397.269317 251.403539 
L 399.285402 251.40657 
L 399.432317 252.227352 
L 400.37937 252.227352 
L 400.52387 252.502848 
L 401.419892 252.502848 
L 401.562132 253.050495 
L 402.479287 253.050495 
L 402.619263 253.8714 
L 403.556401 253.8714 
L 403.69411 254.419512 
L 404.616199 254.419512 
L 404.751714 254.967499 
L 405.692603 254.967499 
L 405.825926 256.060491 
L 421.226366 256.060491 
L 421.226366 256.060491 
" clip-path="url(#pcd9eb6bb84)" style="fill: none; stroke-dasharray: 5.55,2.4; stroke-dashoffset: 0; stroke: #000000; stroke-opacity: 0.5; stroke-width: 1.5"/>
   </g>
   <g id="line2d_97">
    <path d="M 266.977313 357.674963 
L 421.226366 357.674963 
L 421.226366 357.674963 
" clip-path="url(#pcd9eb6bb84)" style="fill: none; stroke-dasharray: 5.55,2.4; stroke-dashoffset: 0; stroke: #000000; stroke-opacity: 0.5; stroke-width: 1.5"/>
   </g>
   <g id="line2d_98">
    <path d="M 148.575547 383.226625 
L 148.575547 211.953312 
" clip-path="url(#pcd9eb6bb84)" style="fill: none; stroke-dasharray: 1.5,2.475; stroke-dashoffset: 0; stroke: #d3d3d3; stroke-width: 1.5"/>
   </g>
   <g id="line2d_99">
    <path d="M 194.273555 383.226625 
L 194.273555 211.953312 
" clip-path="url(#pcd9eb6bb84)" style="fill: none; stroke-dasharray: 1.5,2.475; stroke-dashoffset: 0; stroke: #d3d3d3; stroke-width: 1.5"/>
   </g>
   <g id="line2d_100">
    <path d="M 231.168065 383.226625 
L 231.168065 211.953312 
" clip-path="url(#pcd9eb6bb84)" style="fill: none; stroke-dasharray: 1.5,2.475; stroke-dashoffset: 0; stroke: #d3d3d3; stroke-width: 1.5"/>
   </g>
   <g id="line2d_101">
    <path d="M 281.414654 383.226625 
L 281.414654 211.953312 
" clip-path="url(#pcd9eb6bb84)" style="fill: none; stroke-dasharray: 1.5,2.475; stroke-dashoffset: 0; stroke: #d3d3d3; stroke-width: 1.5"/>
   </g>
   <g id="patch_10">
    <path d="M 57.179533 383.226625 
L 57.179533 211.953312 
" style="fill: none; stroke: #000000; stroke-width: 0.8; stroke-linejoin: miter; stroke-linecap: square"/>
   </g>
   <g id="patch_11">
    <path d="M 421.2 383.226625 
L 421.2 211.953312 
" style="fill: none; stroke: #000000; stroke-width: 0.8; stroke-linejoin: miter; stroke-linecap: square"/>
   </g>
   <g id="patch_12">
    <path d="M 57.179533 383.226625 
L 421.2 383.226625 
" style="fill: none; stroke: #000000; stroke-width: 0.8; stroke-linejoin: miter; stroke-linecap: square"/>
   </g>
   <g id="patch_13">
    <path d="M 57.179533 211.953312 
L 421.2 211.953312 
" style="fill: none; stroke: #000000; stroke-width: 0.8; stroke-linejoin: miter; stroke-linecap: square"/>
   </g>
   <g id="text_25">
    <!-- b -->
    <g transform="translate(12.226549 215.582375) scale(0.14 -0.14)">
     <defs>
      <path id="Arial-BoldMT-62" d="M 422 0 
L 422 4581 
L 1300 4581 
L 1300 2931 
Q 1706 3394 2263 3394 
Q 2869 3394 3266 2955 
Q 3663 2516 3663 1694 
Q 3663 844 3258 384 
Q 2853 -75 2275 -75 
Q 1991 -75 1714 67 
Q 1438 209 1238 488 
L 1238 0 
L 422 0 
z
M 1294 1731 
Q 1294 1216 1456 969 
Q 1684 619 2063 619 
Q 2353 619 2558 867 
Q 2763 1116 2763 1650 
Q 2763 2219 2556 2470 
Q 2350 2722 2028 2722 
Q 1713 2722 1503 2476 
Q 1294 2231 1294 1731 
z
" transform="scale(0.015625)"/>
     </defs>
     <use xlink:href="#Arial-BoldMT-62"/>
    </g>
   </g>
   <g id="legend_2">
    <g id="patch_14">
     <path d="M 69.179533 253.298625 
L 112.179533 253.298625 
Q 114.179533 253.298625 114.179533 251.298625 
L 114.179533 223.953312 
Q 114.179533 221.953312 112.179533 221.953312 
L 69.179533 221.953312 
Q 67.179533 221.953312 67.179533 223.953312 
L 67.179533 251.298625 
Q 67.179533 253.298625 69.179533 253.298625 
z
" style="fill: #ffffff; opacity: 0.8; stroke: #cccccc; stroke-linejoin: miter"/>
    </g>
    <g id="line2d_102">
     <path d="M 71.179533 229.611125 
L 81.179533 229.611125 
L 91.179533 229.611125 
" style="fill: none; stroke-dasharray: 5.55,2.4; stroke-dashoffset: 0; stroke: #000000; stroke-opacity: 0.5; stroke-width: 1.5"/>
     <g>
      <use xlink:href="#ma96467fcec" x="81.179533" y="229.611125" style="fill-opacity: 0.5; stroke: #000000; stroke-opacity: 0.5"/>
     </g>
    </g>
    <g id="text_26">
     <!-- $K_λ$ -->
     <g transform="translate(99.179533 233.111125) scale(0.1 -0.1)">
      <use xlink:href="#DejaVuSans-Oblique-4b" transform="translate(0 0.09375)"/>
      <use xlink:href="#DejaVuSans-Oblique-3bb" transform="translate(65.576172 -16.3125) scale(0.7)"/>
     </g>
    </g>
    <g id="line2d_103">
     <path d="M 71.179533 243.811125 
L 81.179533 243.811125 
L 91.179533 243.811125 
" style="fill: none; stroke-dasharray: 5.55,2.4; stroke-dashoffset: 0; stroke: #000000; stroke-opacity: 0.5; stroke-width: 1.5"/>
     <g>
      <use xlink:href="#md88687732b" x="81.179533" y="243.811125" style="fill: #ffffff; fill-opacity: 0.5; stroke: #000000; stroke-opacity: 0.5"/>
     </g>
    </g>
    <g id="text_27">
     <!-- $S_λ$ -->
     <g transform="translate(99.179533 247.311125) scale(0.1 -0.1)">
      <use xlink:href="#DejaVuSans-Oblique-53" transform="translate(0 0.78125)"/>
      <use xlink:href="#DejaVuSans-Oblique-3bb" transform="translate(63.476562 -15.625) scale(0.7)"/>
     </g>
    </g>
   </g>
  </g>
 </g>
 <defs>
  <clipPath id="pf8d56162a0">
   <rect x="57.179533" y="17.28" width="364.020467" height="171.273312"/>
  </clipPath>
  <clipPath id="pcd9eb6bb84">
   <rect x="57.179533" y="211.953312" width="364.020467" height="171.273312"/>
  </clipPath>
 </defs>
</svg>
